
Open SVG

Paste markup
Demo
Contribute
About
Powered by the incredible SVGO


28.45k → 28.48k 100.11%
<svg xmlns="http://www.w3.org/2000/svg" xmlns:xlink="http://www.w3.org/1999/xlink">
  <defs>
    <style>
      .cls-1{fill:#fff}
    </style>
    <rect id="b" width="42" height="26" rx="4"/>
    <filter x="-1.2%" y="-1.9%" width="102.4%" height="107.7%" filterUnits="objectBoundingBox" id="a">
      <feOffset dy="1" in="SourceAlpha" result="shadowOffsetOuter1"/>
      <feColorMatrix values="0 0 0 0 0 0 0 0 0 0 0 0 0 0 0 0 0 0 0.0742753623 0" in="shadowOffsetOuter1"/>
    </filter>
    <rect id="b" width="42" height="26" rx="4"/>
    <filter x="-1.2%" y="-1.9%" width="102.4%" height="107.7%" filterUnits="objectBoundingBox" id="a">
      <feOffset dy="1" in="SourceAlpha" result="shadowOffsetOuter1"/>
      <feColorMatrix values="0 0 0 0 0 0 0 0 0 0 0 0 0 0 0 0 0 0 0.0742753623 0" in="shadowOffsetOuter1"/>
    </filter>
    <rect id="b" width="42" height="26" rx="4"/>
    <filter id="a" width="102.4%" height="107.7%" x="-1.2%" y="-1.9%" filterUnits="objectBoundingBox">
      <feOffset dy="1" in="SourceAlpha" result="shadowOffsetOuter1"/>
      <feColorMatrix values="0 0 0 0 0 0 0 0 0 0 0 0 0 0 0 0 0 0 0.0742753623 0" in="shadowOffsetOuter1"/>
    </filter>
    <style>
      .cls-1{fill:#fff}
    </style>
    <path id="a" d="M0 50.156h50V.148H0z"/>
    <path id="a" d="M0 .407h151.709v182.14H0"/>
  </defs>
  <symbol id="AirtaskerLogo" viewBox="0 0 141 23">
    <g fill-rule="evenodd">
      <path d="M140.663 11.607l-.026-4.488c-.873.036-3.502.388-4.67 1.791V7.422h-4.878v14.963h4.878v-6.949c.002-.039.007-.078.011-.117.708-3.334 3.873-3.685 4.685-3.712m-43.961.178c-.604-.576-1.235-.867-1.779-1.129a3.924 3.924 0 0 0-1.723-.393c-.464 0-.892.09-1.285.272-.393.182-.59.495-.59.937 0 .423.216.726.65.908.433.181 1.134.382 2.101.605.564.121 1.134.291 1.709.513a6.009 6.009 0 0 1 1.557.878 4.18 4.18 0 0 1 1.119 1.33c.282.525.424 1.149.424 1.875 0 .947-.192 1.75-.575 2.404a4.717 4.717 0 0 1-1.497 1.587 6.45 6.45 0 0 1-2.071.877 9.916 9.916 0 0 1-2.298.272c-1.23 0-2.435-.196-3.614-.59-1.18-.392-2.162-.972-2.948-1.738l2.425-3.046c.444.485 1.344 1.001 1.989 1.322a4.537 4.537 0 0 0 2.057.485c.403 0 .801-.097 1.194-.288.393-.192.59-.53.59-1.013 0-.464-.242-.806-.726-1.029-.483-.221-1.239-.452-2.268-.695a11.86 11.86 0 0 1-1.573-.483 5.015 5.015 0 0 1-1.406-.816 4.073 4.073 0 0 1-1.012-1.272c-.262-.503-.394-1.108-.394-1.814 0-.907.192-1.678.575-2.313a4.862 4.862 0 0 1 1.482-1.557 6.61 6.61 0 0 1 2.01-.893 8.749 8.749 0 0 1 2.193-.287c1.129 0 2.233.177 3.311.529 1.079.353 1.991.882 2.737 1.588l-2.364 2.974m28.725 1.176a2.92 2.92 0 0 0-.729-1.872c-.489-.558-1.222-.838-2.199-.838-.479 0-.916.075-1.316.224-.398.15-.747.355-1.046.614a3.038 3.038 0 0 0-.718.912 2.648 2.648 0 0 0-.288.96h6.296zm4.518 2.015v.599c0 .199-.009.388-.029.567h-10.795c.039.42.164.798.373 1.137.209.34.479.633.808.883.329.248.697.444 1.106.582.408.14.832.209 1.27.209.778 0 1.436-.143 1.975-.433a3.911 3.911 0 0 0 1.316-1.121l3.409 2.153a6.927 6.927 0 0 1-2.766 2.348c-1.148.548-2.478.822-3.993.822a9.538 9.538 0 0 1-3.169-.524 7.665 7.665 0 0 1-2.617-1.525 7.036 7.036 0 0 1-1.764-2.467c-.43-.977-.643-2.093-.643-3.35 0-1.215.208-2.317.628-3.304.418-.986.986-1.824 1.704-2.511a7.57 7.57 0 0 1 2.542-1.6c.976-.379 2.033-.569 3.169-.569 1.097 0 2.104.185 3.021.554a6.557 6.557 0 0 1 2.362 1.6c.658.697 1.171 1.545 1.541 2.541.368.997.552 2.133.552 3.409zM70.83 11.464v-4.5h-4.203V3.612c-.11-1.936-1.018-3.373-4.745-3.375v17.404c0 .761.099 1.45.27 2.068.171.619.451 1.152.84 1.598.389.448.906.79 1.55 1.028.646.237 1.62.356 2.568.356 1.463 0 2.481-.201 3.72-.616v-3.973s-1.167.319-2.438.319c-.666 0-1.124-.166-1.382-.5-.256-.334-.383-.833-.383-1.5v-4.957h4.203"/>
      <path d="M110.194 14.4l5.533-7.008h-5.892l-4.878 6.158V3.708c-.084-1.983-.959-3.466-4.738-3.47v22.149h4.738v-7.152l5.606 7.152h5.928l-6.297-7.987m-25.209 7.972v-9.91c0-4.261-3.381-5.795-6.373-5.795-3.253 0-5.215 1.038-6.518 2.124l2.474 3.077c.823-.767 2.456-1.552 3.559-1.552 1.803 0 2.175 1.031 2.175 2.35v.254h-1.623c-4.159 0-6.662 1.809-6.662 5.021 0 3.509 3.084 4.431 6.837 4.431h6.131zm-4.683-3.115c-.508-.002-1.114.01-1.555 0-1.217-.026-1.961-.504-1.961-1.553 0-1.047.744-1.653 2.232-1.653h1.284v3.206zM44.596 2.953c0 1.542 1.274 2.749 2.716 2.749a2.741 2.741 0 0 0 2.75-2.749c0-1.508-1.242-2.715-2.75-2.715-1.442 0-2.716 1.207-2.716 2.715m.46 4.043h-.197v15.389h4.939V10.234c-.143-1.869-1.095-3.238-4.742-3.238m15.706 4.611l-.025-4.488c-.875.036-3.502.388-4.671 1.791V7.422h-4.878v14.963h4.878v-6.949c.002-.039.007-.078.011-.117.709-3.334 3.873-3.685 4.685-3.712m78.476 8.523h-.278v.516h.278c.161 0 .27-.114.27-.257 0-.145-.109-.259-.27-.259zm.27 1.441l-.338-.677h-.21v.677h-.304v-1.707h.621a.52.52 0 0 1 .531.525c0 .24-.143.397-.325.462l.367.72h-.342zm-.32-2.138c-.684 0-1.225.567-1.225 1.287 0 .721.541 1.287 1.225 1.287.683 0 1.22-.566 1.22-1.287 0-.72-.537-1.287-1.22-1.287zm0 2.867c-.845 0-1.529-.707-1.529-1.58 0-.873.684-1.58 1.529-1.58.844 0 1.528.707 1.528 1.58 0 .873-.684 1.58-1.528 1.58zM31.056 13.706l2.196-6.333 2.196 6.333h-4.392zM35.592.25h-4.444l-6.777 18.015h-2.705c-2.117 0-3.967-.463-5.21-1.302-1.275-.862-1.895-2.101-1.895-3.788v-2.08h-2.175c-.09 0-3.253-.009-5.493-2.218-1.128-1.112-1.84-2.624-2.128-4.515h15.259c2.773 0 3.795 1.353 4.433 2.569a8.098 8.098 0 0 1 .719 1.926l1.912-5.082S25.471.255 20.024.255H.508v2.054c0 4.011 1.178 7.205 3.5 9.494 2.175 2.143 4.852 2.948 6.622 3.248.884 4.507 5.02 7.323 11.036 7.323h6.256l1.431-4.063 7.802.008 1.429 4.055h5.343L35.592.25z"/>
    </g>
  </symbol>
  <symbol id="AirtaskerLogoSmall" viewBox="0 0 18 18">
    <path d="M17 10.51c0-.56-.25-1.521-.8-2.309-.649-.928-1.532-1.399-2.627-1.399H4.387c.118 1.016.46 1.819 1.022 2.393.987 1.01 2.372 1.027 2.41 1.027l.827-.013v.859c0 2.216 1.685 2.515 3.333 2.515h.132v1.692h-.132c-3.562 0-4.68-1.726-4.912-3.437-.738-.13-1.869-.483-2.801-1.437C3.234 9.345 2.711 7.85 2.711 5.956V5.11h10.862c1.366 0 2.425.515 3.214 1.255C15.735 2.685 12.455 0 8.571 0 3.837 0 0 3.987 0 8.905c0 4.918 3.837 8.905 8.57 8.905 4.202 0 7.697-3.142 8.43-7.287v-.013" fill-rule="evenodd"/>
  </symbol>
  <symbol id="airtasker-design-logo" viewBox="0 0 188 24">
    <path d="M116.448 18V1.128h5.448c5.064 0 8.472 3.096 8.472 8.424 0 5.376-3.408 8.448-8.472 8.448h-5.448zm1.656-1.488h3.624c4.152 0 6.912-2.448 6.912-6.96 0-4.488-2.784-6.936-6.912-6.936h-3.624v13.896zm14.784-4.536c0-3.96 2.688-6.336 5.952-6.336 3.336 0 5.04 2.568 5.04 5.568 0 .288-.048.84-.048.84h-9.264c.072 3.096 2.184 4.776 4.68 4.776 2.208 0 3.672-1.464 3.672-1.464l.744 1.248s-1.752 1.68-4.464 1.68c-3.6 0-6.312-2.592-6.312-6.312zm1.752-1.272h7.584c-.096-2.52-1.632-3.696-3.432-3.696-2.016 0-3.768 1.272-4.152 3.696zm11.376 5.832s1.536 1.752 4.464 1.752c2.424 0 4.128-1.416 4.128-3.384 0-3.984-6.504-3.264-6.504-5.928 0-1.344 1.176-1.872 2.4-1.872 1.992 0 3.024 1.104 3.024 1.104l.744-1.248s-1.176-1.32-3.72-1.32c-2.184 0-4.128 1.176-4.128 3.336 0 3.936 6.504 3.288 6.504 5.928 0 1.272-1.128 1.92-2.424 1.92-2.256 0-3.6-1.464-3.6-1.464l-.888 1.176zm11.568-13.368h1.704v-2.04h-1.704v2.04zM157.632 18h1.632V5.928h-1.632V18zm13.548-1.538l.42.304v-.086c0-.456.048-.864.048-.864h-.048a4.367 4.367 0 0 1-.42.646zm.42.304l-.42-.304c-.744.941-1.848 1.466-3.396 1.466-3.24 0-5.376-2.568-5.376-6.192S164.4 5.64 167.64 5.64c3.192 0 3.984 2.016 3.984 2.016h.048s-.024-.144-.024-.408v-1.32h1.584v11.784c0 3.84-2.832 5.328-5.784 5.328a8.847 8.847 0 0 1-3.96-.96l.624-1.344s1.488.84 3.264.84c2.352 0 4.224-1.104 4.224-3.792v-1.018zm-3.552-.302c1.896 0 3.576-1.176 3.576-4.728 0-3.528-1.68-4.608-3.816-4.608-2.352 0-3.72 1.704-3.72 4.584s1.56 4.752 3.96 4.752zm11.046-8.4l-.318-.758v.422c0 .528-.048.96-.048.96h.048c.074-.188.18-.4.318-.624zm-.318-.758l.318.758c.676-1.086 2.137-2.424 4.506-2.424 2.976 0 4.032 1.704 4.032 4.68V18H186v-7.248c0-1.896-.288-3.576-2.616-3.576-2.064 0-3.84 1.416-4.392 3.408-.144.504-.192 1.056-.192 1.632V18h-1.632V5.928h1.608v1.378zm-67.825 2.273c-.637.021-3.12.297-3.675 2.913-.003.031-.007.061-.009.092v5.452h-3.827V6.296h3.827v1.167c.917-1.1 2.98-1.376 3.664-1.404l.02 3.52zm-34.49.14c-.473-.452-.968-.68-1.395-.885a3.074 3.074 0 0 0-1.352-.309c-.364 0-.7.071-1.008.213-.309.143-.463.389-.463.736 0 .332.17.569.51.712.34.142.89.3 1.65.474.441.095.888.229 1.34.403.451.175.857.404 1.221.689.364.284.657.632.878 1.044.221.411.332.901.332 1.47 0 .744-.15 1.373-.45 1.886-.3.515-.693.93-1.175 1.246a5.093 5.093 0 0 1-1.625.688 7.824 7.824 0 0 1-1.803.213c-.965 0-1.91-.154-2.836-.462-.925-.308-1.695-.763-2.312-1.364l1.902-2.39c.348.38 1.054.785 1.561 1.037a3.56 3.56 0 0 0 1.613.38c.316 0 .63-.075.937-.226.31-.15.463-.415.463-.794 0-.364-.19-.633-.569-.807-.38-.174-.972-.355-1.779-.546a9.247 9.247 0 0 1-1.235-.379 3.907 3.907 0 0 1-1.103-.64 3.213 3.213 0 0 1-.794-.997c-.206-.395-.309-.87-.309-1.424 0-.712.151-1.316.451-1.815.3-.497.688-.905 1.163-1.221.474-.316 1-.55 1.577-.701a6.864 6.864 0 0 1 1.72-.225c.886 0 1.752.139 2.598.416.846.276 1.562.691 2.147 1.245l-1.855 2.333zm26.082 2.504v.47c0 .156-.008.304-.024.445H94.05c.031.329.13.626.293.891.164.267.376.497.634.693.258.195.547.348.868.457.32.11.653.164.996.164.61 0 1.127-.113 1.55-.34.422-.227.765-.52 1.032-.879l2.674 1.689a5.43 5.43 0 0 1-2.17 1.842c-.9.43-1.944.645-3.132.645a7.492 7.492 0 0 1-2.487-.411 6 6 0 0 1-2.052-1.197 5.526 5.526 0 0 1-1.385-1.935c-.337-.766-.504-1.642-.504-2.628 0-.954.164-1.818.492-2.592a5.866 5.866 0 0 1 1.337-1.971 5.969 5.969 0 0 1 1.995-1.255 6.815 6.815 0 0 1 2.486-.446c.861 0 1.65.145 2.37.434a5.15 5.15 0 0 1 1.853 1.256c.517.547.92 1.211 1.21 1.993.288.782.433 1.674.433 2.675zm-3.545-1.581a2.294 2.294 0 0 0-.572-1.469c-.384-.438-.959-.657-1.725-.657a2.91 2.91 0 0 0-1.033.176 2.671 2.671 0 0 0-.82.481 2.401 2.401 0 0 0-.564.716c-.124.241-.2.493-.226.753h4.94zM56.164 9.467h-3.298v3.89c0 .523.1.914.301 1.176.202.262.562.392 1.084.392.997 0 1.913-.25 1.913-.25v3.117c-.972.326-1.77.483-2.918.483-.745 0-1.509-.093-2.015-.279-.506-.186-.91-.455-1.217-.806a3.162 3.162 0 0 1-.659-1.254 6.072 6.072 0 0 1-.21-1.623V.659c2.923.002 3.635 1.129 3.721 2.648v2.63h3.298v3.53zM35.582 2.79c0-1.183 1-2.13 2.13-2.13 1.184 0 2.158.947 2.158 2.13a2.15 2.15 0 0 1-2.158 2.157c-1.13 0-2.13-.947-2.13-2.157zm.361 3.172c2.861 0 3.608 1.074 3.72 2.54v9.534h-3.875V5.962h.155zM28.518.669l6.54 17.358h-4.193l-1.12-3.181-6.122-.007-1.123 3.188h-4.908c-4.72 0-7.965-2.209-8.659-5.745-1.388-.236-3.488-.868-5.195-2.549C1.916 7.937.993 5.432.993 2.284V.673h15.311c4.273 0 5.542 2.762 5.542 2.762l-1.5 3.987s-.146-.713-.565-1.511c-.5-.954-1.302-2.015-3.477-2.015H4.332c.226 1.483.785 2.67 1.67 3.542 1.758 1.732 4.24 1.74 4.31 1.74h1.705v1.632c0 1.323.487 2.295 1.488 2.971.975.659 2.426 1.022 4.087 1.022h2.123L25.031.669h3.487zM24.96 11.226h3.446l-1.723-4.968-1.723 4.968zm62.088.545l4.94 6.266h-4.65l-4.399-5.611v5.611h-3.717V.66c2.964.003 3.651 1.167 3.717 2.722v7.722l3.828-4.831h4.622l-4.34 5.498zM67.27 18.025h-4.81c-2.944 0-5.364-.723-5.364-3.476 0-2.52 1.964-3.939 5.226-3.939h1.274v-.199c0-1.035-.292-1.844-1.706-1.844-.866 0-2.147.616-2.792 1.217L57.155 7.37c1.023-.851 2.562-1.666 5.114-1.666 2.348 0 5 1.204 5 4.547v7.774zm-3.674-2.443v-2.516h-1.008c-1.167 0-1.75.475-1.75 1.297 0 .823.583 1.198 1.538 1.219.346.007.822-.002 1.22 0zm-15.33-6.003c-.637.021-3.12.297-3.676 2.913-.003.031-.007.061-.009.092v5.452h-3.827V6.296h3.827v1.167c.917-1.1 2.98-1.376 3.665-1.404l.02 3.52zm61.53 8.39c-.664 0-1.2-.555-1.2-1.24 0-.685.536-1.24 1.2-1.24.661 0 1.198.555 1.198 1.24 0 .685-.537 1.24-1.199 1.24zm0-2.25c-.538 0-.962.446-.962 1.01 0 .566.424 1.01.961 1.01.536 0 .957-.444.957-1.01 0-.564-.42-1.01-.957-1.01zm.25 1.678l-.265-.531h-.165v.531h-.239v-1.339h.488c.244 0 .417.188.417.411a.371.371 0 0 1-.255.363l.288.565h-.269zm-.21-1.131h-.22v.405h.22c.125 0 .21-.089.21-.202a.2.2 0 0 0-.21-.203z"/>
  </symbol>
  <symbol id="alert" viewBox="0 0 24 24">
    <g fill-rule="evenodd">
      <path d="M12 22c5.523 0 10-4.477 10-10S17.523 2 12 2 2 6.477 2 12s4.477 10 10 10zm0 2C5.373 24 0 18.627 0 12S5.373 0 12 0s12 5.373 12 12-5.373 12-12 12z"/>
      <path d="M11.164 16.873h1.789v-1.731h-1.79v1.73zm.072-2.983h1.615l.16-7.345h-1.92l.145 7.346z"/>
    </g>
  </symbol>
  <symbol id="arrow-down" viewBox="0 0 12 12">
    <path d="M6 12L0 6h12z"/>
  </symbol>
  <symbol id="arrow-left" viewBox="0 0 12 12">
    <path d="M0 6l6-6v12z"/>
  </symbol>
  <symbol id="arrow-line-direction-left" viewBox="0 0 17 17">
    <path d="M4.107 9.5H16a1 1 0 0 0 0-2H3.945l5.764-5.795A1 1 0 1 0 8.291.295L.945 7.679a.997.997 0 0 0-.29.68.997.997 0 0 0 .28.737l7.346 7.599a1 1 0 1 0 1.438-1.39L4.107 9.5z" fill-rule="evenodd"/>
  </symbol>
  <symbol id="arrow-line-direction-right-fill-white" viewBox="0 0 17 17">
    <path d="M13.546 7.5H1.654a1 1 0 0 0 0 2h12.055l-5.764 5.795a1 1 0 1 0 1.418 1.41l7.345-7.384A.997.997 0 0 0 17 8.64a.997.997 0 0 0-.28-.737L9.373.305a1 1 0 1 0-1.438 1.39L13.546 7.5z" fill-rule="evenodd"/>
  </symbol>
  <symbol id="arrow-line-direction-right" viewBox="0 0 17 17">
    <path d="M13.546 7.5H1.654a1 1 0 0 0 0 2h12.055l-5.764 5.795a1 1 0 1 0 1.418 1.41l7.345-7.384A.997.997 0 0 0 17 8.64a.997.997 0 0 0-.28-.737L9.373.305a1 1 0 1 0-1.438 1.39L13.546 7.5z" fill-rule="evenodd"/>
  </symbol>
  <symbol id="arrow-line" viewBox="0 0 28 16">
    <path d="M.438 1.826a1 1 0 0 1 .88-1.775c.3.1.562.19 11.986 12.547L24.972.311a1.001 1.001 0 0 1 1.45 1.377L13.598 15.193a.43.43 0 0 1-.626-.002L.438 1.826z"/>
  </symbol>
  <symbol id="arrow-right" viewBox="0 0 12 12">
    <path d="M12 6l-6 6V0z"/>
  </symbol>
  <symbol id="arrow-up" viewBox="0 0 12 12">
    <path d="M6 0l6 6H0z"/>
  </symbol>
  <symbol id="arrow" viewBox="0 0 12 12">
    <path d="M6 0l6 6H0z"/>
  </symbol>
  <symbol id="assembly" viewBox="0 0 213 264.69">
    <g id="Layer_2" data-name="Layer 2">
      <g id="Layer_1-2" data-name="Layer 1">
        <path class="cls-1" d="M203.41 95.19H9.42C4.3 95.19 0 99.81 0 104.92v22.42c0 5.11 4.3 8.84 9.42 8.84H12v108.49a4.34 4.34 0 0 0 0 4v11.48a4.5 4.5 0 0 0 9 0v-9h167v9a4.5 4.5 0 0 0 9 0v-11.44a4.34 4.34 0 0 0 0-4V136.19h6.41c5.11 0 9.59-3.73 9.59-8.84v-22.43a10 10 0 0 0-9.59-9.73zm-15.41 147H21v-106h167zm-179-115v-22h194.41v22z"/>
        <path class="cls-1" d="M185 201.46a9.27 9.27 0 0 0-9.28-9.27H38.28a9.27 9.27 0 0 0-9.28 9.27v22.45a9.27 9.27 0 0 0 9.28 9.27h137.44a9.27 9.27 0 0 0 9.28-9.27zm-147-.27h136.95v23H38z"/>
        <circle class="cls-1" cx="106.4" cy="212.89" r="6.21"/>
        <path class="cls-1" d="M8 89.19h76c4.11 0 7-3.56 7-8.84V57.92c0-5.29-2.93-9.74-7-9.74H8c-4.11 0-7 4.45-7 9.74v22.42c0 5.29 2.88 8.85 7 8.85zm2-31h72v22H10z"/>
        <circle class="cls-1" cx="46.12" cy="69.13" r="6.21"/>
        <path class="cls-1" d="M8 43.19h76c4.11 0 7-3.93 7-9.22V11.55c0-5.29-2.93-9.36-7-9.36H8c-4.11 0-7 4.08-7 9.36V34c0 5.26 2.88 9.19 7 9.19zm2-32h72v23H10z"/>
        <circle class="cls-1" cx="46.12" cy="22.76" r="6.21"/>
        <path class="cls-1" d="M132.3 51a25.23 25.23 0 0 0 7.17-1l34.63 34.6.87.9a12.32 12.32 0 0 0 17.44-17.42l-35.49-35.49a26 26 0 0 0 1-7.2 25.49 25.49 0 0 0-35.1-23.51 4.64 4.64 0 0 0-1.71 7.4l7 7.75-.2 4-4.13.1-7.78-6.76a4.64 4.64 0 0 0-7.34 1.8A25.48 25.48 0 0 0 132.3 51zm-13.24-21.7a4.6 4.6 0 0 0 3.15 1.13l10.22-.26a4.64 4.64 0 0 0 4.51-4.41l.5-10.18a4.64 4.64 0 0 0-1.19-3.33l-2.64-2.93a16.2 16.2 0 0 1 15 16.07 16.44 16.44 0 0 1-1.29 6.61 4.64 4.64 0 0 0 1 5.12l37.1 37.1.45.45a3 3 0 0 1-2.15 5.2 3 3 0 0 1-2.1-.84l-.84-.87-.05-.05-36.78-36.78a4.64 4.64 0 0 0-5.15-1 16.18 16.18 0 0 1-22.64-13.53z"/>
      </g>
    </g>
  </symbol>
  <symbol id="badge" viewBox="0 0 123.93 137.69">
    <path d="M123.92 54.34c0-5.82-.1-12-.21-18.34-.08-4.93-.17-8.85-.23-11.13a6.88 6.88 0 0 0-4.71-6.36L64.14.35h-.09c-.2-.06-.39-.11-.6-.16h-.22L62.68 0h-1.43l-.55.11h-.22c-.2 0-.4.1-.6.16h-.09L5.16 18.5a6.88 6.88 0 0 0-4.71 6.37C.39 27.15.31 31.07.23 36 .12 42.3 0 48.52 0 54.34 0 66 .09 74.78.47 79.91c1.8 24.16 27.67 50.95 59.76 57.57l.34.07h.12l.52.07h1.43l.53-.07h.12l.33-.07c32.09-6.62 58-33.4 59.76-57.57.46-5.13.62-13.91.54-25.57zM14.2 78.88c-.35-4.64-.47-13.22-.42-24.47 0-5.76.1-11.93.21-18.17 0-2.31.08-4.4.12-6.2l41-13.62v105.4C32.56 114.1 15.39 94.81 14.2 78.88zm95.53 0c-1.19 15.93-18.36 35.22-40.88 42.94V16.42l41 13.62c0 1.8.08 3.88.12 6.2.11 6.25.18 12.41.21 18.17.02 11.25-.1 19.83-.45 24.47z"/>
  </symbol>
  <symbol id="badge_cba_colour" viewBox="0 0 38 38">
    <g fill="none" fill-rule="evenodd">
      <rect width="38" height="38" fill="#F3F5F6" rx="19"/>
      <path fill="#F5CD46" d="M28.705 18.705l-9.628-9.628a.263.263 0 0 0-.372 0l-9.628 9.628a.263.263 0 0 0 0 .372l9.628 9.628c.103.102.27.102.372 0l9.628-9.628a.263.263 0 0 0 0-.372z"/>
      <path fill="#131A1E" d="M29.235 19.117L19 28.774l4.204-9.164 3.195-3.32z"/>
    </g>
  </symbol>
  <symbol id="badge_creditcard_colour" viewBox="0 0 38 38">
    <g fill="none" fill-rule="evenodd">
      <rect width="38" height="38" fill="#F3F5F6" rx="19"/>
      <path fill="#008FB4" d="M4.4 12.5c0-1.654 1.35-3 3-3h23.2c1.658 0 3 1.34 3 3v13c0 1.654-1.35 3-3 3H7.4c-1.658 0-3-1.34-3-3v-13z"/>
      <path fill="#FFF" d="M5.4 12.5v13c0 1.11.895 2 2 2h23.2c1.095 0 2-.895 2-2v-13c0-1.11-.895-2-2-2H7.4c-1.095 0-2 .895-2 2z"/>
      <path stroke="#008FB4" stroke-width="1.2" d="M8.4 22.133h20.946m-21.078 2h4.189" stroke-linecap="round"/>
      <rect width="4.944" height="3.918" x="7.971" y="15.537" fill="#008FB4" rx="1"/>
    </g>
  </symbol>
  <symbol id="badge_facebook_colour" viewBox="0 0 38 38">
    <g fill="none" fill-rule="evenodd">
      <rect width="38" height="38" fill="#F3F5F6" rx="19"/>
      <path fill="#008FB4" d="M15 15.155v2.696h1.751v7.918h3.367v-7.952h2.35l.25-2.662h-2.6V13.64c0-.628.135-.876.778-.876h1.822V10h-2.332c-2.505 0-3.635 1.04-3.635 3.033v2.122H15z"/>
    </g>
  </symbol>
  <symbol id="badge_ikea_colour" viewBox="0 0 38 38">
    <path fill="#F3F5F6" d="M19 0c10.493 0 19 8.507 19 19s-8.507 19-19 19S0 29.493 0 19 8.507 0 19 0z"/>
    <path d="M6 15.57v1.328h1.197v4.542H6v1.328h4.227V21.44h-1.18v-4.542h1.18V15.57zm15.068 0h-1.849v7.198h5.152v-1.46h-3.303V19.62h3.047v-1.46h-3.047v-1.13h3.303v-1.46zm-4.995 0l-2.545 3.218V15.57h-1.849v7.198h1.849v-2.34l.464-.52 2.064 2.86h2.312l-2.923-3.857 2.791-3.34zm11.642 0l-2.659 7.198h1.899l.479-1.46h2.576l.538 1.454 1.889.006-2.659-7.198h-2.063zm1.032 1.93l.85 2.44h-1.684l.834-2.44zm3.756-2.292c-.62 0-1.123.505-1.123 1.13 0 .622.503 1.128 1.123 1.128s1.123-.505 1.123-1.129-.503-1.129-1.123-1.129m0 .2c.51 0 .925.416.925.93 0 .512-.415.93-.925.93s-.925-.418-.925-.93c0-.514.415-.93.925-.93"/>
    <path d="M32.547 16.224h-.232v-.307h.232c.082 0 .162.07.162.153 0 .085-.08.154-.162.154zm.176.145s.251.015.251-.294c0-.268-.1-.362-.373-.362h-.57v1.18h.276v-.438h.157l.34.437h.326l-.407-.523z"/>
  </symbol>
  <symbol id="badge_linkedin_colour" viewBox="0 0 38 38">
    <g fill="none" fill-rule="evenodd">
      <rect width="38" height="38" fill="#F3F5F6" rx="19"/>
      <path fill="#008FB4" d="M14.742 12.888a1.88 1.88 0 0 1-1.871 1.888A1.88 1.88 0 0 1 11 12.888 1.88 1.88 0 0 1 12.871 11a1.88 1.88 0 0 1 1.871 1.888zm-3.438 13.459h3.164V16.116h-3.164v10.23zm8.222-10.231h-3.035v10.23h3.035v-5.37c0-1.439.662-2.295 1.928-2.295 1.164 0 1.723.822 1.723 2.295v5.37h3.149V19.87c0-2.74-1.552-4.065-3.72-4.065-2.167 0-3.08 1.69-3.08 1.69v-1.378z"/>
    </g>
  </symbol>
  <symbol id="badge_mobile_colour" viewBox="0 0 38 38">
    <g fill="none" fill-rule="evenodd">
      <rect width="38" height="38" fill="#F3F5F6" rx="19"/>
      <path fill="#008FB4" d="M22.404 31.75h-5.808c-2.636 0-4.796-2.122-4.796-4.733V10.532c0-2.61 2.16-4.732 4.796-4.732h5.808c2.636 0 4.796 2.122 4.796 4.732v16.485c0 2.61-2.16 4.733-4.796 4.733z"/>
      <path fill="#FFF" d="M22.404 30.55c1.978 0 3.596-1.59 3.596-3.533V10.532C26 8.59 24.382 7 22.404 7h-5.808C14.618 7 13 8.59 13 10.532v16.485c0 1.943 1.618 3.533 3.596 3.533h5.808z"/>
      <path fill="#008FB4" d="M21 27.5a1.5 1.5 0 1 1-3 0 1.5 1.5 0 0 1 3 0"/>
    </g>
  </symbol>
  <symbol id="badge_police_colour" viewBox="0 0 38 38">
    <g fill="none" fill-rule="evenodd">
      <rect width="38" height="38" fill="#F3F5F6" rx="19"/>
      <path fill="#FFF" stroke="#008FB4" stroke-width="1.2" d="M19 29.535s9.025-2.38 9.025-10.233v-8.837H9.975v8.837C9.975 27.154 19 29.535 19 29.535z" stroke-linejoin="round"/>
      <path fill="#008FB4" d="M10.45 15.116h4.275V10.93H10.45zm4.275 4.186H19v-4.186h-4.275zM19 15.116h4.275V10.93H19zm4.275 4.186h4.275v-4.186h-4.275z"/>
    </g>
  </symbol>
  <symbol id="badge_pro_colour" viewBox="0 0 38 38">
    <g fill="none" fill-rule="evenodd">
      <rect width="38" height="38" fill="#F3F5F6" rx="19"/>
      <rect width="25.936" height="12.435" x="6" y="13.452" fill="#FFF" stroke="#008FB4" rx="6.217"/>
      <path fill="#008FB4" d="M11.635 22.352h.967v-1.82h1.086c.997 0 1.693-.713 1.693-1.737 0-1.025-.696-1.716-1.693-1.716h-2.053v5.273zm.967-2.651v-1.798h.921c.547 0 .877.35.877.892 0 .55-.33.906-.892.906h-.906zm4.372 2.651h.966v-1.968h.93l1.056 1.968h1.079l-1.094-1.968a1.29 1.29 0 0 0-.18-.26v-.015c.562-.223.899-.81.899-1.44 0-.699-.337-1.204-.87-1.442-.231-.104-.494-.148-1.07-.148h-1.716v5.273zm.966-2.8v-1.649h.734c.757 0 .974.312.974.817 0 .528-.322.832-.839.832h-.869zm4.305.126c0 1.553 1.183 2.763 2.75 2.763 1.565 0 2.75-1.21 2.75-2.763 0-1.507-1.185-2.688-2.75-2.688-1.567 0-2.75 1.18-2.75 2.688zm.996 0c0-1.04.78-1.812 1.753-1.812.974 0 1.754.773 1.754 1.812 0 1.085-.78 1.887-1.754 1.887s-1.753-.802-1.753-1.887z"/>
    </g>
  </symbol>
  <symbol id="badge_twitter_colour" viewBox="0 0 38 38">
    <g fill="none" fill-rule="evenodd">
      <rect width="38" height="38" fill="#F3F5F6" rx="19"/>
      <path fill="#008FB4" d="M24.91 14.935a3.128 3.128 0 0 0 1.422-1.71 6.664 6.664 0 0 1-2.054.75A3.305 3.305 0 0 0 21.916 13c-2.088 0-3.623 1.86-3.15 3.793-2.69-.129-5.073-1.359-6.668-3.228-.848 1.389-.44 3.205 1 4.125a3.337 3.337 0 0 1-1.464-.387c-.035 1.431 1.038 2.77 2.594 3.068a3.39 3.39 0 0 1-1.46.053c.41 1.227 1.606 2.12 3.021 2.145A6.728 6.728 0 0 1 11 23.849a9.473 9.473 0 0 0 4.959 1.387c6.006 0 9.399-4.844 9.194-9.189a6.416 6.416 0 0 0 1.614-1.599 6.703 6.703 0 0 1-1.858.487z"/>
    </g>
  </symbol>
  <symbol id="bell" viewBox="0 0 18 21">
    <path d="M16.21 12.605c-.35-.978-.864-1.863-1.272-2.81-.766-1.777-.584-3.656-1.023-5.494-.273-1.141-.827-2.211-1.731-2.975C11.157.458 9.543.001 8.543 0c-1 .001-2.614.458-3.641 1.326-.903.764-1.458 1.834-1.731 2.975-.438 1.838-.257 3.717-1.023 5.494-.408.947-.923 1.832-1.273 2.81a15.29 15.29 0 0 0-.873 4.512c-.02.449.152.787.47 1.12.308.322.712.388 1.139.388H6.33c.102.992 1.046 1.981 2.213 1.997 1.167-.016 2.11-1.005 2.213-1.997h4.719c.427 0 .83-.066 1.138-.388.319-.333.49-.671.472-1.12a15.324 15.324 0 0 0-.874-4.512zm-.966 4.02H1.842c-.092 0 .064-.591.08-.739.043-.354.098-.61.166-.961.135-.698.318-1.345.57-2.01.384-1.014 1.027-1.866 1.427-2.872a9.434 9.434 0 0 0 .67-3.166c.056-1.575.015-3.049 1.33-4.158.704-.595 1.458-.884 2.458-.882 1-.002 1.754.287 2.458.882 1.315 1.109 1.274 2.583 1.329 4.158a9.434 9.434 0 0 0 .67 3.166c.4 1.006 1.044 1.858 1.428 2.872.252.665.435 1.312.57 2.01.068.351.123.607.165.961.017.148.174.739.08.739z" fill-rule="evenodd"/>
  </symbol>
  <symbol id="calendar" viewBox="0 0 19 20">
    <g transform="translate(0 1)" fill-rule="evenodd">
      <path fill-rule="nonzero" d="M.667 4.857h16.936v-1.35H.667z"/>
      <path d="M3.734 2.898a.337.337 0 0 1-.34-.331V.33c0-.182.153-.33.34-.33.187 0 .34.148.34.33v2.236c0 .181-.153.33-.34.33m2.826.002a.337.337 0 0 1-.34-.331V.33c0-.182.152-.33.34-.33.187 0 .34.148.34.33v2.236c0 .181-.153.33-.34.33m2.825.002a.337.337 0 0 1-.34-.331V.33c0-.182.153-.33.34-.33.187 0 .34.148.34.33v2.236c0 .181-.153.33-.34.33m2.825.002a.337.337 0 0 1-.34-.331V.33c0-.182.153-.33.34-.33.187 0 .34.148.34.33v2.236c0 .181-.153.33-.34.33m2.826.002a.337.337 0 0 1-.34-.331V.33c0-.182.153-.33.34-.33.187 0 .34.148.34.33v2.236c0 .181-.153.33-.34.33" stroke="#CAD7DC" stroke-width=".5"/>
      <path d="M1.535 5.28v8.68a2.928 2.928 0 0 0 2.928 2.931h9.983a2.932 2.932 0 0 0 2.929-2.931V5.28a2.928 2.928 0 0 0-2.929-2.932H4.463a2.932 2.932 0 0 0-2.928 2.931zm-1.35 0A4.282 4.282 0 0 1 4.463.997h9.983a4.278 4.278 0 0 1 4.279 4.281v8.68a4.282 4.282 0 0 1-4.279 4.282H4.463a4.278 4.278 0 0 1-4.278-4.28V5.28z" fill-rule="nonzero"/>
      <ellipse cx="5.291" cy="9.619" rx="2.149" ry="2.091"/>
    </g>
  </symbol>
  <symbol id="card-coupon_colour" viewBox="0 0 42 27">
    <g fill="none" fill-rule="evenodd">
      <use fill="#000" filter="url(#a)" xlink:href="#b"/>
      <use fill="#F6F6F6" xlink:href="#b"/>
      <path d="M25.865 11.36a.65.65 0 0 1 .35 1.114l-1.804 1.728a.65.65 0 0 0-.192.575l.4 2.466a.65.65 0 0 1-.95.678l-2.2-1.182a.65.65 0 0 0-.606-.006l-2.221 1.143a.65.65 0 0 1-.938-.694l.444-2.46a.651.651 0 0 0-.182-.577l-1.773-1.76a.65.65 0 0 1 .37-1.107l2.476-.338a.65.65 0 0 0 .493-.351l1.125-2.231a.65.65 0 0 1 1.167.01l1.085 2.25a.65.65 0 0 0 .487.361l2.469.382z" fill="#E0C300"/>
    </g>
  </symbol>
  <symbol id="card-task-credit_colour" viewBox="0 0 42 27">
    <g fill="none" fill-rule="evenodd">
      <use fill="#000" filter="url(#a)" xlink:href="#b"/>
      <use fill="#F6F6F6" xlink:href="#b"/>
      <path d="M29 14.442c0-.503-.236-1.366-.753-2.074-.61-.834-1.442-1.257-2.472-1.257h-8.646c.111.913.433 1.634.962 2.15.929.908 2.232.922 2.268.922l.778-.011v.771c0 1.991 1.586 2.26 3.137 2.26h.124v1.52h-.124c-3.352 0-4.404-1.55-4.622-3.087-.695-.117-1.76-.434-2.637-1.292-.97-.948-1.463-2.292-1.463-3.993v-.76h10.223c1.285 0 2.282.462 3.025 1.127C27.81 7.412 24.722 5 21.067 5 16.612 5 13 8.582 13 13s3.612 8 8.067 8c3.954 0 7.243-2.822 7.933-6.546v-.012" fill="#008FB4"/>
    </g>
  </symbol>
  <symbol id="checkbox-tick" viewBox="0 0 17 14">
    <path d="M15.033 1.242l-8.742 9.48L2.461 6.5a.835.835 0 0 0-1.189-.052.856.856 0 0 0-.271.591.85.85 0 0 0 .219.613l4.417 4.871c.158.172.37.27.576.273a.848.848 0 0 0 .631-.24l9.364-10.094a.846.846 0 0 0 .252-.599.843.843 0 0 0-.238-.605A.828.828 0 0 0 15.63 1a.784.784 0 0 0-.598.242z" stroke="#007FAD" stroke-width=".5"/>
  </symbol>
  <symbol id="chevron" viewBox="0 0 17 27">
    <path d="M2.513.438A1.01 1.01 0 0 0 1.363.05a1.002 1.002 0 0 0-.634 1.267c.1.302.19.563 12.62 11.987L.99 24.97a.997.997 0 0 0-.037 1.415 1.01 1.01 0 0 0 1.422.036l13.584-12.825a.428.428 0 0 0-.002-.625L2.513.438z" fill-rule="evenodd"/>
  </symbol>
  <symbol id="cleaning" viewBox="0 0 127.64 248.5">
    <path d="M126.23 40.61L99 0H20.7C15.42 0 9.39 4.34 9.39 9.62v10.92c0 5.25 6.13 9.55 11.37 9.59l14.92.11a26 26 0 0 1 14 3.78c-2.39 9.92-14.48 23.59-19.21 28.54a4.59 4.59 0 0 0 6.06 6.85L61.7 49.73l.12.3a80 80 0 0 1 4.38 17.28 7 7 0 0 0-4.82 6.89v13.93c0 3 1 5.59 4 6.68V106a14.12 14.12 0 0 1-9.28 13.24 75 75 0 0 0-49 60.62l-7 51.61a15 15 0 0 0 14.75 17h91.19A14.85 14.85 0 0 0 121 233.93l1.35-53.18a15 15 0 0 0-.31-3.43L105 94.68a7.45 7.45 0 0 0 4.42-6.55V74.19c0-3.4-2.83-6.25-6-7V49.5h16.86c2.84 0 5.21 0 6.56-2.53s.96-3.97-.61-6.36zM22.46 9.7h5.93v10.96l-6-.06zm76.93 75.8h-29v-9h29zm13.37 95l-1.36 53a5.17 5.17 0 0 1-5.33 5H14.89a5.09 5.09 0 0 1-5.28-5.81l7-51.57a65.72 65.72 0 0 1 43-52.9A23.88 23.88 0 0 0 75.39 106V95.5h19.77l17.49 83.75a5.42 5.42 0 0 1 .11 1.23zm-16.37-137v23H74.61c-.85-11-3.83-24.82-14.29-35.3a34.37 34.37 0 0 0-24.84-10.59l-1.09.11v-11l60.34.09 22.06 33.69z" data-name="Layer 1"/>
  </symbol>
  <symbol id="close-cross-new" viewBox="0 0 17 17">
    <path d="M8.75 6.586L15.043.293a1 1 0 0 1 1.414 1.414L10.164 8l6.293 6.293a1 1 0 0 1-1.414 1.414L8.75 9.414l-6.293 6.293a1 1 0 1 1-1.414-1.414L7.336 8 1.043 1.707A1 1 0 1 1 2.457.293L8.75 6.586z"/>
  </symbol>
  <symbol id="coin-stars" viewBox="0 0 99 95">
    <path d="M67.75 25.107a3.954 3.954 0 0 1 3.951 3.95.975.975 0 0 0 1.948 0c0-2.866-2.11-5.347-4.924-5.817v-1.568a.973.973 0 0 0-1.947 0v1.568c-2.813.47-4.922 2.95-4.922 5.818a5.902 5.902 0 0 0 5.894 5.896 3.953 3.953 0 0 1 3.951 3.95 3.953 3.953 0 0 1-3.95 3.948 3.951 3.951 0 0 1-3.948-3.948.974.974 0 0 0-1.947 0c0 2.866 2.109 5.345 4.923 5.815v1.568a.973.973 0 0 0 1.946 0v-1.568c2.814-.47 4.924-2.95 4.924-5.815a5.906 5.906 0 0 0-5.899-5.897 3.953 3.953 0 0 1-3.947-3.95c0-2.178 1.77-3.95 3.947-3.95M37.128 55.73a3.955 3.955 0 0 1 3.95 3.95.974.974 0 0 0 1.947 0c0-2.867-2.108-5.347-4.924-5.815v-1.569a.975.975 0 0 0-.973-.974.976.976 0 0 0-.974.974v1.569c-2.812.468-4.92 2.948-4.92 5.815a5.902 5.902 0 0 0 5.894 5.896 3.954 3.954 0 0 1 3.95 3.951 3.954 3.954 0 0 1-3.95 3.95 3.954 3.954 0 0 1-3.95-3.95.973.973 0 0 0-1.945 0c0 2.865 2.109 5.344 4.921 5.814v1.568c0 .537.438.975.974.975a.975.975 0 0 0 .973-.975v-1.568c2.816-.47 4.924-2.949 4.924-5.814a5.904 5.904 0 0 0-5.897-5.897 3.954 3.954 0 0 1-3.95-3.95 3.955 3.955 0 0 1 3.95-3.95" fill-opacity=".7"/>
    <path d="M67.75 3.677c-16.708 0-30.302 13.594-30.302 30.303 0 .11.002.217.004.326a10.801 10.801 0 0 0-.323-.005c-16.708 0-30.3 13.594-30.3 30.302s13.592 30.302 30.3 30.302 30.3-13.594 30.3-30.302c0-.11 0-.217-.002-.322l.323.001c16.71 0 30.304-13.594 30.304-30.302 0-16.71-13.594-30.303-30.304-30.303zM37.13 92.484c-15.375 0-27.881-12.507-27.881-27.881s12.506-27.88 27.88-27.88c.146 0 .295.002.445.01.634 7.023 3.742 13.646 8.76 18.664 5.018 5.018 11.642 8.125 18.665 8.76.006.15.011.298.011.446 0 15.374-12.507 27.88-27.88 27.88zM67.75 61.86c-.421 0-.843-.01-1.252-.027a1.076 1.076 0 0 0-.423-.052c-.056.004-.11.008-.164.02-13.906-.91-25.07-12.073-25.98-25.98a1.187 1.187 0 0 0-.034-.588 30.395 30.395 0 0 1-.027-1.254c0-15.374 12.507-27.88 27.88-27.88 15.374 0 27.881 12.506 27.881 27.88 0 15.374-12.507 27.881-27.88 27.881z"/>
    <path d="M17.243 28.243L13 36l-4.243-7.757L1 24l7.757-4.243L13 12l4.243 7.757L25 24l-7.757 4.243zm16.878-13.122L32 19l-2.121-3.879L26 13l3.879-2.121L32 7l2.121 3.879L38 13l-3.879 2.121zM21.06 4.06L20 6l-1.06-1.94L17 3l1.94-1.06L20 0l1.06 1.94L23 3l-1.94 1.06z" fill-opacity=".7"/>
  </symbol>
  <symbol id="copy-to-buffer" viewBox="0 0 12 12">
    <path d="M2.229 8.285h3.827a2.235 2.235 0 0 0 2.229-2.23V2.23A2.235 2.235 0 0 0 6.055 0H2.23A2.235 2.235 0 0 0 0 2.229v3.827a2.236 2.236 0 0 0 2.229 2.229zm-.743-6.037c0-.409.335-.743.743-.743h3.827c.408 0 .743.334.743.743v3.827a.745.745 0 0 1-.743.743H2.229a.745.745 0 0 1-.743-.744V2.248zm8.285 1.467A2.236 2.236 0 0 1 12 5.945V9.77A2.235 2.235 0 0 1 9.771 12H5.944a2.235 2.235 0 0 1-2.229-2.229V8.656h1.486v1.115c0 .408.335.743.743.743h3.827a.745.745 0 0 0 .743-.743V5.944a.745.745 0 0 0-.743-.743H8.656V3.715h1.115z" fill-rule="evenodd"/>
  </symbol>
  <symbol id="credit-card-add_colour" viewBox="0 0 42 27">
    <g fill="none" fill-rule="evenodd">
      <use fill="#000" filter="url(#a)" xlink:href="#b"/>
      <use fill="#F6F6F6" xlink:href="#b"/>
      <g stroke="#008FB4">
        <path stroke-width="1.2" d="M28.6 13.2a7.6 7.6 0 0 1-7.6 7.6 7.6 7.6 0 0 1-7.6-7.6 7.6 7.6 0 1 1 15.2 0z"/>
        <path d="M21.047 9.725v6.802m3.401-3.401h-6.802" stroke-width="1.12" stroke-linecap="round"/>
      </g>
    </g>
  </symbol>
  <symbol id="credit-card-mastercard_colour" viewBox="0 0 34 22">
    <g fill="none" fill-rule="evenodd">
      <rect width="34" height="21.048" fill="#F6F6F6" rx="4"/>
      <g fill-rule="nonzero">
        <path fill="#FF5F00" d="M15.039 6.892h4.473v8.065h-4.473z"/>
        <path fill="#EB001B" d="M15.323 10.925a5.15 5.15 0 0 1 1.945-4.033 5.07 5.07 0 0 0-3.152-1.097c-2.826 0-5.112 2.294-5.112 5.13s2.286 5.13 5.112 5.13a5.07 5.07 0 0 0 3.152-1.097 5.129 5.129 0 0 1-1.945-4.033z"/>
        <path fill="#F79E1B" d="M25.547 10.925c0 2.836-2.286 5.13-5.112 5.13a5.07 5.07 0 0 1-3.152-1.097 5.107 5.107 0 0 0 1.945-4.033 5.15 5.15 0 0 0-1.945-4.033 5.07 5.07 0 0 1 3.152-1.097c2.826 0 5.112 2.309 5.112 5.13z"/>
      </g>
    </g>
  </symbol>
  <symbol id="credit-card-stars_colour" viewBox="0 0 149 97">
    <rect stroke="#007FAD" stroke-width="3" fill="#FFF" x="35" y="23" width="100" height="60" rx="8"/>
    <rect fill-opacity=".7" fill="#007FAD" x="47" y="37" width="15" height="15" rx="4"/>
    <rect fill-opacity=".7" fill="#007FAD" x="47" y="63" width="20" height="5" rx="2"/>
    <rect fill-opacity=".7" fill="#007FAD" x="72" y="63" width="20" height="5" rx="2"/>
    <rect fill-opacity=".7" fill="#007FAD" x="97" y="63" width="20" height="5" rx="2"/>
    <path d="M9 30L.515 32.485 3 24 .515 15.515 9 18l8.485-2.485L15 24l2.485 8.485L9 30zm19-14l-4.243 1.243L25 13l-1.243-4.243L28 10l4.243-1.243L31 13l1.243 4.243L28 16zM17.06 4.06L16 6l-1.06-1.94L13 3l1.94-1.06L16 0l1.06 1.94L19 3l-1.94 1.06z" fill-opacity=".7" fill="#007FAD"/>
  </symbol>
  <symbol id="credit-card-visa_colour" viewBox="0 0 34 21">
    <g fill="none" fill-rule="evenodd">
      <rect width="34" height="21" fill="#F6F6F6" rx="4"/>
      <path d="M13.51 13.548l1.663-5.294h1.483l-1.662 5.294zm-.662-5.293l-1.334 2.244c-.34.588-.539.885-.634 1.256h-.02c.023-.47-.045-1.048-.051-1.375l-.147-2.125H8.165l-.026.143c.642 0 1.022.31 1.127.947l.486 4.203h1.537l3.107-5.293h-1.548zm11.533 5.293l-.041-.788h-1.852l-.379.788H20.5l2.92-5.284h1.976l.494 5.284h-1.508zm-.17-3.123c-.017-.391-.03-.922-.003-1.244h-.022c-.09.263-.478 1.052-.649 1.44l-.551 1.16h1.3l-.075-1.356zm-5.998 3.274a4.25 4.25 0 0 1-2.238-.608l.706-1.042c.445.241.795.518 1.6.518.258 0 .508-.064.65-.301.206-.345-.048-.53-.627-.847l-.286-.18c-.86-.567-1.231-1.105-.827-2.045.26-.601.941-1.057 2.067-1.057.776 0 1.504.324 1.928.642l-.812.92c-.414-.324-.757-.487-1.15-.487-.312 0-.55.116-.632.274-.155.296.05.497.5.768l.341.209c1.043.635 1.291 1.3 1.03 1.924-.45 1.072-1.33 1.312-2.25 1.312z" fill="#005A9C"/>
    </g>
  </symbol>
  <symbol id="cross-circle" viewBox="0 0 16 16">
    <path d="M8 8.571l-2.31 2.31a.404.404 0 1 1-.572-.57L7.428 8l-2.31-2.31a.404.404 0 1 1 .571-.572L8 7.428l2.31-2.31a.404.404 0 1 1 .572.571L8.572 8l2.31 2.31a.404.404 0 1 1-.571.572L8 8.572zM16 8A8 8 0 1 1 0 8a8 8 0 0 1 16 0z" fill-rule="evenodd"/>
  </symbol>
  <symbol id="delivery" viewBox="0 0 182.31 233.57">
    <g id="Layer_1-2" data-name="Layer 1">
      <path class="cls-1" d="M101.51 172.57a5.5 5.5 0 0 0 5.5 5.5h28a5.5 5.5 0 0 0 0-11H107a5.5 5.5 0 0 0-5.49 5.5zm-17.66-98.5H72.74a5.5 5.5 0 1 0 0 11h11.11a5.5 5.5 0 1 0 0-11z"/>
      <path class="cls-1" d="M181.72 224a6.84 6.84 0 0 0-1-1.67 61.28 61.28 0 0 0-43.46-18.23H69.44a29.77 29.77 0 0 0 .58-5.84 8.92 8.92 0 0 0 0-1.16H155a6.36 6.36 0 0 0 6-6v-75.97c0-12.25-10.39-22.06-22.65-22.06H130V63.33a22.42 22.42 0 0 0-22.39-22.26H73.78C61.52 41.07 52 51.08 52 63.33v104a43.48 43.48 0 0 0-6-2.53V25.61A25.8 25.8 0 0 0 20.21 0a5.64 5.64 0 0 0-5.65 5.56 5.73 5.73 0 0 0 5.76 5.56A14.69 14.69 0 0 1 35 25.61V163.1a34.86 34.86 0 0 0-35 35.12 35.25 35.25 0 0 0 35 35.35c13 0 24.3-7.5 30.37-17.5h71.85a49.81 49.81 0 0 1 35.5 14.43 5.47 5.47 0 0 0 4 1.62 5.68 5.68 0 0 0 5-8.15zM149 115.13v69.94H67.61a35.78 35.78 0 0 0-4.61-8.32v-72.68h75.35c6.14 0 10.65 4.93 10.65 11.06zm-86-51.8a11 11 0 0 1 10.78-11.26h33.84A11.49 11.49 0 0 1 119 63.33v29.74H63zM34.88 222.24a24 24 0 1 1 17.88-40l.27.31a24 24 0 0 1-18.14 39.74z"/>
    </g>
  </symbol>
  <symbol id="desktop" viewBox="0 0 33 30">
    <g fill-rule="evenodd">
      <path d="M30.025.507H3.064A2.688 2.688 0 0 0 .379 3.192v20.491a2.688 2.688 0 0 0 2.685 2.685h12.952v2.179H7.378a.529.529 0 0 0 0 1.057H26.79a.529.529 0 0 0 0-1.057h-9.717v-2.179h12.952a2.688 2.688 0 0 0 2.686-2.685V3.192A2.689 2.689 0 0 0 30.025.507zM3.064 1.564h26.961c.898 0 1.63.73 1.63 1.628v16.727H1.434V3.192c0-.898.73-1.628 1.629-1.628zM30.025 25.31H3.064a1.63 1.63 0 0 1-1.629-1.628v-2.707h30.22v2.707a1.63 1.63 0 0 1-1.63 1.628z"/>
      <path d="M16.544 22.076a1.069 1.069 0 0 0 0 2.136 1.07 1.07 0 0 0 0-2.136"/>
    </g>
  </symbol>
  <symbol id="embed" viewBox="0 0 20 12">
    <path d="M19.21 4.622c.49.289.79.82.79 1.394s-.3 1.105-.79 1.393l-4.369 2.616a1.02 1.02 0 0 1-1.409-.372 1.054 1.054 0 0 1 .366-1.43l3.697-2.207-3.72-2.211a1.049 1.049 0 0 1-.508-.91c.003-.373.202-.717.522-.9.32-.185.712-.182 1.03.007l4.391 2.62zM6.572 2.374a1.056 1.056 0 0 1-.37 1.431L2.505 6.01l3.72 2.211c.49.293.654.933.366 1.431a1.02 1.02 0 0 1-1.41.372L.79 7.405A1.617 1.617 0 0 1 0 6.01c0-.574.3-1.105.79-1.393l4.373-2.616c.236-.14.516-.18.78-.11.265.07.491.243.63.482zM11.576.033c.267.07.496.246.635.489.138.243.175.532.101.802L9.805 11.14a1.039 1.039 0 0 1-.722.746c-.355.1-.735 0-.998-.263a1.057 1.057 0 0 1-.275-1.008l2.512-9.83c.068-.268.238-.498.473-.64a1.02 1.02 0 0 1 .78-.112z"/>
  </symbol>
  <symbol id="envelope" viewBox="0 0 24 20">
    <path d="M19.61 0H4.39A4.395 4.395 0 0 0 0 4.39v10.72A3.89 3.89 0 0 0 3.89 19h16.22A3.89 3.89 0 0 0 24 15.11V4.39A4.395 4.395 0 0 0 19.61 0zM4.412 2h15.176c1.034 0 1.911.657 2.253 1.573-.906.568-4.676 3.242-7.685 5.18-.897.578-1.526.867-2.156.869-.63-.002-1.259-.291-2.156-.869-3.009-1.938-6.779-4.612-7.685-5.18A2.409 2.409 0 0 1 4.412 2zM22 14.588A2.415 2.415 0 0 1 19.588 17H4.412A2.415 2.415 0 0 1 2 14.588V5.809c1.617 1.014 4.353 3.05 6.773 4.608 1.261.812 2.257 1.175 3.227 1.176.97-.001 1.966-.364 3.227-1.176 2.42-1.558 5.156-3.594 6.773-4.608v8.779z" fill-rule="evenodd"/>
  </symbol>
  <symbol id="error-circle" viewBox="0 0 22 22">
    <path d="M11 21c5.523 0 10-4.477 10-10S16.523 1 11 1 1 5.477 1 11s4.477 10 10 10zm0 1C4.925 22 0 17.075 0 11S4.925 0 11 0s11 4.925 11 11-4.925 11-11 11z"/>
    <path d="M14.824 13.975l-2.97-2.972 2.97-2.973a.605.605 0 0 0-.854-.853L11 10.149 8.03 7.177a.603.603 0 1 0-.854.853l2.971 2.973-2.97 2.972a.606.606 0 0 0 0 .854.618.618 0 0 0 .853 0L11 11.856l2.97 2.973a.618.618 0 0 0 .854 0 .606.606 0 0 0 0-.854"/>
  </symbol>
  <symbol id="error-triangle" viewBox="0 0 24 23">
    <path d="M8.248 2.496c1.815-3.328 5.524-3.328 7.34 0l7.57 13.878c1.784 3.271-.113 6.467-3.839 6.467H4.516c-3.726 0-5.623-3.195-3.838-6.467l7.57-13.878zM2.434 17.332c-1.058 1.939-.125 3.51 2.082 3.51H19.32c2.208 0 3.14-1.572 2.083-3.51l-7.57-13.878c-1.058-1.939-2.771-1.938-3.829 0l-7.57 13.878zm8.484.51h2v-2h-2v2zm.151-3h1.682l.167-7h-2l.151 7z" fill-rule="evenodd"/>
  </symbol>
  <symbol id="facebook-circle" viewBox="0 0 25 24">
    <path d="M12.5 0C19.404 0 25 5.372 25 12c0 6.627-5.596 12-12.5 12C5.597 24 0 18.627 0 12 0 5.372 5.597 0 12.5 0zm5.338 6H7.162a.662.662 0 0 0-.662.662v10.676c0 .365.296.662.662.662h5.748v-4.647h-1.564v-1.811h1.564v-1.336c0-1.55.946-2.394 2.329-2.394.662 0 1.231.05 1.397.072v1.62h-.959c-.752 0-.897.357-.897.882v1.156h1.793l-.233 1.811h-1.56V18h3.058a.662.662 0 0 0 .662-.662V6.662A.662.662 0 0 0 17.838 6z" fill-rule="evenodd"/>
  </symbol>
  <symbol id="facebook" viewBox="0 0 8 15">
    <path d="M7.79 2.682l-1.412.001c-1.107 0-1.322.518-1.322 1.278v1.676h2.64l-.343 2.626H5.056V15H2.303V8.263H0V5.637h2.303V3.702C2.303 1.454 3.697.23 5.732.23c.975 0 1.813.07 2.058.103v2.348z" fill-rule="evenodd"/>
  </symbol>
  <symbol id="file" viewBox="0 0 32 43">
    <g fill-rule="evenodd">
      <path d="M25.5 40.1H6c-2.186 0-4-1.79-4-4v-30c0-2.186 1.79-4 4-4h18.5l-.64-.232 6 5-.36-.768v30c0 2.248-1.752 4-4 4zm0 2c3.352 0 6-2.648 6-6V5.632l-.36-.3-6-5L24.862.1H6c-3.321 0-6 2.716-6 6v30c0 3.321 2.716 6 6 6h19.5z"/>
      <path d="M23.5 1.1v4.4c0 1.152.948 2.1 2.1 2.1h4.8v-2h-4.8c-.048 0-.1-.052-.1-.1V1.1h-2zM5.812 11.403h13.282v-2H4.812v2h1zm0 4h21.28v-2H4.812v2h1zm0 4.397h18.28v-2H4.812v2h1zm0 4h20.28v-2H4.812v2h1z"/>
    </g>
  </symbol>
  <symbol id="flag" viewBox="0 0 14 14">
    <path d="M5.962 2.28l-.365.87c.6-.159 1.541-.107 2.757.91 1.823 1.527 4.104.046 4.2-.018a.292.292 0 0 1 .34.014.275.275 0 0 1 .085.323L11.25 8.478a.28.28 0 0 1-.103.124 5.44 5.44 0 0 1-1.61.674c-.35.083-.69.124-1.019.124a3.453 3.453 0 0 1-2.265-.817c-1.62-1.357-2.528-.716-2.693-.573L1.55 12.8a.286.286 0 0 1-.372.152.277.277 0 0 1-.157-.364L5.435 2.065a.63.63 0 0 1-.165-.424A.65.65 0 0 1 5.926 1a.65.65 0 0 1 .656.64.648.648 0 0 1-.62.64zm-1.56 4.901c.572 0 1.323.224 2.224.979 1.653 1.383 3.73.264 4.13.024l1.392-3.301a5.509 5.509 0 0 1-.883.294c-1.25.298-2.385.059-3.283-.692-1.603-1.343-2.512-.727-2.688-.58l-1.409 3.34c.152-.038.324-.064.517-.064z" stroke="#839094" stroke-width=".2" fill-rule="evenodd"/>
  </symbol>
  <symbol id="gardening" viewBox="0 0 199.36 227.73">
    <path d="M191.2 84.46L180.76 74c12.72-17.59 10.29-42.94-6.37-59.61C156-4 127-4.89 109.67 12.39L78.28 43.78l-6.46 6.46-4.46 4.46a27.94 27.94 0 0 0 0 39.47l38.74 38.74-81.23-26.27 2.71-8a4.75 4.75 0 0 0-9-3l-8.53 25.25a4.75 4.75 0 1 0 9 3l2.78-8.23 99 32 3.58 3.58a28 28 0 0 0 39.47 0l27.3-27.3a27.94 27.94 0 0 0 .02-39.48zM116.38 19.1C130 5.52 153 6.43 167.67 21.13c12.94 12.94 15.28 32.27 6.26 46.07l-39.8-39.8a4.75 4.75 0 0 0-6.73 0l-8.8 8.89-23.2 3.8zm68.1 98.12l-27.3 27.3a18.44 18.44 0 0 1-26 0L74.07 87.46a18.44 18.44 0 0 1 0-26L78.53 57l5.38-5.38 37.74-6.14a4.74 4.74 0 0 0 2.61-1.35l6.53-6.6 53.69 53.69a18.44 18.44 0 0 1 0 26zM17.75 175.53a4.75 4.75 0 0 0-4.11 2.37C1 199.83 0 208 0 210a17.75 17.75 0 1 0 35.49 0c0-7.84-10.44-26.54-13.63-32.08a4.75 4.75 0 0 0-4.11-2.39zm0 42.71A8.26 8.26 0 0 1 9.49 210c0-2.8 3.8-11.37 8.25-19.86C22.2 198.62 26 207.18 26 210a8.26 8.26 0 0 1-8.25 8.24z" data-name="Layer 1"/>
  </symbol>
  <symbol id="google-circle" viewBox="0 0 25 24">
    <path d="M12.5 0C19.404 0 25 5.372 25 12c0 6.627-5.596 12-12.5 12C5.597 24 0 18.627 0 12 0 5.372 5.597 0 12.5 0zM9.576 11.283v1.74h2.88c-.117.748-.871 2.19-2.88 2.19-1.733 0-3.147-1.435-3.147-3.204 0-1.77 1.414-3.206 3.147-3.206.987 0 1.646.42 2.024.783l1.377-1.327c-.884-.826-2.03-1.327-3.4-1.327A5.073 5.073 0 0 0 4.5 12.01a5.073 5.073 0 0 0 5.076 5.076c2.93 0 4.873-2.06 4.873-4.96a4.63 4.63 0 0 0-.08-.842H9.577zm10.878 0h-1.45v-1.45h-1.45v1.45h-1.451v1.45h1.45v1.451h1.45v-1.45h1.451v-1.45z" fill-rule="evenodd"/>
  </symbol>
  <symbol id="google-plus" viewBox="0 0 19 12">
    <path d="M6.083 11.484c-3.033 0-5.491-2.526-5.491-5.64 0-3.115 2.458-5.64 5.49-5.64 1.43 0 2.728.56 3.706 1.477l-1.62 1.627a3.166 3.166 0 0 0-2.085-.784c-1.785 0-3.232 1.486-3.232 3.32 0 1.833 1.447 3.601 3.232 3.601 1.38 0 2.559-.675 3.022-1.86h-3.55v-2.37h5.899c.078 0 .12.5.12.904 0 3.114-2.458 5.365-5.491 5.365m12.922-4.922h-2.308v2.37h-1.154v-2.37h-2.307V5.377h2.307v-2.37h1.154v2.37h2.308v1.185" fill-rule="evenodd"/>
  </symbol>
  <symbol id="hamburger" viewBox="0 0 21 16">
    <path d="M1 2h19c.5 0 1-.5 1-1s-.5-1-1-1H1C.5 0 0 .5 0 1s.5 1 1 1zm0 7h19c.5 0 1-.5 1-1s-.5-1-1-1H1c-.5 0-1 .5-1 1s.5 1 1 1zm0 7h19c.5 0 1-.5 1-1s-.5-1-1-1H1c-.5 0-1 .5-1 1s.5 1 1 1z"/>
  </symbol>
  <symbol id="handyman" viewBox="0 0 205.49 205.08">
    <path d="M173.41 45.31a4.89 4.89 0 0 0 6.92 0l23.72-23.72a4.89 4.89 0 0 0 0-6.92L190.82 1.43a4.89 4.89 0 0 0-6.92 0l-23.72 23.73a4.89 4.89 0 0 0 0 6.92l3 3-52 52.1L77 53a40.16 40.16 0 0 0 2-12.7A39.44 39.44 0 0 0 24.72 3.95a4.89 4.89 0 0 0-1.21 8.37L36.73 22.8 35 36.24l-13.69 2L11.2 24.91a4.89 4.89 0 0 0-8.45 1.16 39.41 39.41 0 0 0 36.64 53.87A39 39 0 0 0 52 77.84l34.3 34.26-10.38 10.4-14.23-14.29a4.89 4.89 0 1 0-6.94 6.9l4.7 4.72-51.27 51.28a19.9 19.9 0 0 0 28.14 28.14L87.53 148l3.25 3.26a4.89 4.89 0 1 0 6.94-6.9l-14.9-15L93.22 119l31.73 31.73a39 39 0 0 0-2.09 12.65A39.41 39.41 0 0 0 177 199.94a4.89 4.89 0 0 0 1.2-8.38l-13.24-10.45 1.7-13.41 13.68-2 10.09 13.3a4.89 4.89 0 0 0 8.45-1.16 39.22 39.22 0 0 0 2.75-14.48c0-21.86-17.56-39.64-39.14-39.64a40.16 40.16 0 0 0-12.71 2L118.1 94.11l52-52.1zm-144 147A10.11 10.11 0 1 1 15.1 178l51.07-51 14.31 14.31zm158-180.52l6.32 6.32-16.8 16.8-6.32-6.32zM150.5 136a30 30 0 0 1 12-2.42c16.19 0 29.35 13.39 29.35 29.85v1.27l-5.46-7.21a4.89 4.89 0 0 0-4.61-1.88l-20.21 3a4.89 4.89 0 0 0-4.14 4.22l-2.51 19.84a4.89 4.89 0 0 0 1.82 4.46l7.43 5.86q-.94.06-1.89.06a29.58 29.58 0 0 1-27.1-41.49 4.89 4.89 0 0 0-1-5.43L56.7 68.67a4.89 4.89 0 0 0-5.43-1A29.58 29.58 0 0 1 9.79 40.55v-1.28l5.47 7.21a4.89 4.89 0 0 0 4.61 1.88l20.22-3a4.89 4.89 0 0 0 4.14-4.22l2.56-19.84A4.89 4.89 0 0 0 45 16.85l-7.5-5.95c.68 0 1.37-.08 2-.08A29.64 29.64 0 0 1 69.24 40.3a30 30 0 0 1-2.42 12 4.89 4.89 0 0 0 1 5.4l77.25 77.25a4.9 4.9 0 0 0 5.43 1.05z" data-name="Layer 1"/>
  </symbol>
  <symbol id="heart-fill" viewBox="0 0 12 10">
    <path d="M5.071 1.91C4.132.832 2.968.697 1.886 1.58a2.44 2.44 0 0 0-.867 1.577c-.083.637.107 1.212.558 1.713l3.68 3.954a.935.935 0 0 0 1.373.008S9.742 5.588 10.3 4.87c.558-.718.63-1.064.558-1.7a2.44 2.44 0 0 0-.867-1.59C8.91.697 7.745.832 6.806 1.91l-.499.562a.49.49 0 0 1-.749 0l-.487-.563z" stroke-width="1.1" fill-rule="evenodd"/>
  </symbol>
  <symbol id="heart" viewBox="0 0 12 10">
    <path d="M6.392 1.548C7.527.246 9.029.086 10.349 1.162c.6.515.954 1.163 1.056 1.946.093.826-.056 1.31-.67 2.1-.234.299-.851.98-1.76 1.95l-.066.07a253.107 253.107 0 0 1-1.881 1.984 1.485 1.485 0 0 1-2.173-.014l-3.686-3.96c-.559-.62-.8-1.356-.695-2.153.101-.762.456-1.41 1.065-1.932C2.849.086 4.35.246 5.486 1.548l.447.517.459-.517zm-.418.564c-.019-.021-.06-.022-.077-.006l.036-.04.04.046zm-3.73-.115a1.89 1.89 0 0 0-.68 1.232c-.061.471.075.887.416 1.266L5.66 8.45c.159.17.412.171.573.003a238.28 238.28 0 0 0 1.873-1.976l.066-.07c.879-.938 1.491-1.613 1.694-1.874.444-.57.505-.77.447-1.291a1.882 1.882 0 0 0-.67-1.235c-.841-.686-1.67-.598-2.425.268l-.485.547a1.039 1.039 0 0 1-1.59.011l-.487-.562c-.752-.862-1.58-.95-2.412-.273z"/>
  </symbol>
  <symbol id="icon-boss" viewBox="0 0 10 27">
    <path d="M7.833 9.938l1.545 11.227a3.137 3.137 0 0 1-.705 2.445l-1.57 1.873a3.14 3.14 0 0 1-4.804.007l-1.56-1.849a3.14 3.14 0 0 1-.71-2.45L1.574 9.939a2.957 2.957 0 0 1 2.93-2.554h.4a2.956 2.956 0 0 1 2.929 2.553zm-2.93-.553h-.4a.957.957 0 0 0-.948.826L2.011 21.463c-.044.32.05.643.257.89l1.56 1.847c.456.54 1.289.54 1.743-.002l1.57-1.873c.206-.246.3-.568.255-.887L5.852 10.211a.956.956 0 0 0-.948-.826zM3.223 0h3.034c1.449 0 2.29 1.617 1.877 3.04l-.526 1.805c-.261.897-.984 1.552-1.877 1.552H3.748c-.893 0-1.616-.655-1.877-1.552L1.346 3.04C.931 1.618 1.774 0 3.223 0zm3.034 2h-.084c.005-.008.033 0 .084 0zM3.3 2.024a.642.642 0 0 0-.034.457l.526 1.805c.03.105.037.11-.044.11h1.983c-.08 0-.074-.005-.043-.11l.525-1.805a.644.644 0 0 0-.034-.457c-.006-.013-.009-.02-.006-.024H3.307c.002.004 0 .01-.007.024z"/>
  </symbol>
  <symbol id="icon-insurance" viewBox="0 0 26 26">
    <path d="M20.778 5.222C16.483.926 9.518.926 5.222 5.222c-4.296 4.295-4.296 11.26 0 15.556 4.295 4.296 11.26 4.296 15.556 0 4.296-4.295 4.296-11.26 0-15.556zm1.414-1.414c5.077 5.076 5.077 13.308 0 18.384-5.076 5.077-13.308 5.077-18.384 0-5.077-5.076-5.077-13.308 0-18.384 5.076-5.077 13.308-5.077 18.384 0z"/>
    <path d="M17.107 8.893a5.808 5.808 0 1 0-8.214 8.214 5.808 5.808 0 0 0 8.214-8.214zM18.52 7.48A7.808 7.808 0 1 1 7.479 18.521 7.808 7.808 0 0 1 18.521 7.479z"/>
    <path d="M9.25 7.128L7.128 9.25 3.305 5.427l2.122-2.122L9.25 7.128zM3.305 5.427l2.122-2.122L9.25 7.128 7.128 9.25 3.305 5.427zm17.12-1.973l-3.672 3.671 2.122 2.122 3.67-3.672zM7.126 16.753l-3.672 3.671 2.122 2.122 3.67-3.672zm15.571 3.823l-2.121 2.121-3.823-3.823 2.121-2.121 3.823 3.823zm-5.944-1.702l2.121-2.121 3.823 3.823-2.121 2.121-3.823-3.823z"/>
  </symbol>
  <symbol id="icon-secure" viewBox="0 0 21 26">
    <path d="M11.361 4.54c.024-.077.198-.653.252-.823.407-1.27.76-1.677 1.376-1.5 1.064.306 1.19 3.847.186 7.014-.166.52.03 1.086.491 1.382.159.101.289.124.636.16.092.01-.51-.1.22 0 .207.02.61.079.78.1.453.055.858.127 1.238.226 1.459.382 2.254 1.085 2.294 2.298.09 2.741.118 6.545-.015 7.578-.286 2.22-3.325 3.431-5.519 3.184-.619-.07-1.212-.228-1.902-.492-.48-.185-2.281-.986-2.373-1.025-2.456-1.044-4.723-1.576-7.98-1.643l-.023 1.158c3.1.063 5.223.562 7.55 1.55.067.029 1.897.844 2.411 1.041.776.297 1.461.48 2.188.562 2.74.309 6.405-1.153 6.797-4.187.145-1.125.116-4.934.023-7.763-.06-1.825-1.258-2.884-3.158-3.381a10.44 10.44 0 0 0-1.391-.256 33.417 33.417 0 0 0-.763-.086c.063.006-.198.086-.259-.016-.06-.102-.161-.018-.204-.026.004 0 .015.004.074.042 1.184-3.823 1.037-7.953-.981-8.533-1.463-.42-2.22.455-2.799 2.26-.058.181-.233.763-.254.83-1.337 4.28-4.31 7.17-9.256 7.381l.05 1.157c5.495-.235 8.842-3.488 10.311-8.193z" stroke="#FFF"/>
  </symbol>
  <symbol id="ikea" viewBox="0 0 30 9">
    <g fill-rule="evenodd">
      <path d="M0 .594V2.01h1.276v4.842H0v1.416h4.507V6.852H3.248V2.01h1.259V.594zm16.065 0h-1.972v7.674h5.492V6.711h-3.52V4.912h3.248V3.355h-3.248V2.15h3.52V.594zm-5.325 0l-2.714 3.43V.595H6.054v7.674h1.972V5.774l.495-.556 2.2 3.05h2.465L10.07 4.156 13.046.594zm12.41 0l-2.834 7.674h2.025l.51-1.557h2.747l.574 1.551 2.014.006L25.35.594h-2.2zm1.101 2.057l.907 2.602h-1.796l.889-2.602zM28.256.208A1.2 1.2 0 0 0 27.06 1.41a1.2 1.2 0 0 0 1.197 1.204 1.2 1.2 0 0 0 1.197-1.204A1.2 1.2 0 0 0 28.256.208m0 .212a.99.99 0 0 1 .986.991.99.99 0 0 1-.986.991.99.99 0 0 1-.986-.99.99.99 0 0 1 .986-.992"/>
      <path d="M28.303 1.29h-.247V.965h.247c.088 0 .173.073.173.163 0 .09-.085.164-.173.164zm.188.155s.267.017.267-.313c0-.286-.108-.386-.397-.386h-.61v1.256h.296v-.466h.168l.362.466h.348l-.434-.557z"/>
    </g>
  </symbol>
  <symbol id="info-circle" viewBox="0 0 24 24">
    <path d="M24 12c0-6.627-5.373-12-12-12S0 5.373 0 12s5.373 12 12 12 12-5.373 12-12zM2 12C2 6.477 6.477 2 12 2s10 4.477 10 10-4.477 10-10 10S2 17.523 2 12zm8.502 3.375c0 1.425 1.047 1.541 1.934 1.541.32 0 .655-.043.655-.043l.262-1.382s-.146.029-.32.029c-.378 0-.626-.145-.626-.596 0-.131.03-.306.058-.451l.975-5.018h-2.982l-.276 1.381h1.149l-.742 3.782a4.034 4.034 0 0 0-.087.757zm1.338-7.186h1.862l.32-1.644H12.16l-.32 1.644z" fill-rule="evenodd"/>
  </symbol>
  <symbol id="life-saver" viewBox="0 0 42 42">
    <g fill-rule="evenodd">
      <path d="M35.142 6.858c7.81 7.81 7.81 20.474 0 28.284-7.81 7.81-20.474 7.81-28.284 0-7.81-7.81-7.81-20.474 0-28.284 7.81-7.81 20.474-7.81 28.284 0z" stroke-width="2"/>
      <path d="M29.023 12.977c4.43 4.431 4.43 11.615 0 16.046-4.431 4.431-11.615 4.431-16.046 0-4.431-4.43-4.431-11.615 0-16.046 4.43-4.43 11.615-4.43 16.046 0z" stroke-width="2"/>
      <path d="M9.796 9.796L6.61 6.61l3.186 3.186 3.186 3.186-3.186-3.186zm25.346-2.938l-6.119 6.119M12.977 29.023l-6.119 6.119m25.351-2.933l-3.187-3.187 3.187 3.187 3.185 3.185-3.185-3.185z" stroke-width="4"/>
    </g>
  </symbol>
  <symbol id="lightbulb" viewBox="0 0 331.77 356.15">
    <g data-name="Layer 2">
      <g data-name="Layer 1">
        <path d="M127.96 293.9h74.54v14.69h-74.54zm.04 33.74a13.52 13.52 0 0 0 13.37 12.09h47.84a13.48 13.48 0 0 0 13.33-12.09v-3H128zm37-249.46a86.77 86.77 0 0 0-86.62 86.91 88.24 88.24 0 0 0 12.03 44.11v.44a104.59 104.59 0 0 0 11.65 15.57l.88.88q21.31 30.5 24.58 51.88h75.41c2.59-17.73 14.64-38 25.42-53.16 0-.44.44-.44.88-.88a58.82 58.82 0 0 0 9.9-13.41c0-.44.44-.44.44-.88s.44-.44.44-.88a85.05 85.05 0 0 0 11.61-43.67A86.77 86.77 0 0 0 165 78.18z"/>
        <path d="M165 62.65c-56.42 0-102.54 46.23-102.54 102.87a101.81 101.81 0 0 0 13.81 51c.4.88.84 1.28 1.28 2.16 3.45 6.49 8.2 12.09 12.94 17.32 14.21 20.73 22 38.47 21.55 49.72v41.07a29.38 29.38 0 0 0 29.29 29.38h47.8a29.38 29.38 0 0 0 29.28-29.38v-37.21c0-1.28-.44-2.56-.44-3.44v-.44c-.4-11.65 7.34-29.82 22.43-51 4.31-4.32 7.78-9.49 11.21-14.69l.88-1.28a7.6 7.6 0 0 0 1.72-3 104.43 104.43 0 0 0 13.37-50.6C267.57 108.44 221.45 62.21 165 62.65zm37.47 265a13.48 13.48 0 0 1-13.33 12.09h-47.81a13.52 13.52 0 0 1-13.33-12.1v-3h74.54zm0-19.05H128v-14.7h74.54zM240 208.76c0 .44-.44.44-.44.88s-.44.44-.44.88a58.82 58.82 0 0 1-9.9 13.41c-.44.44-.88.44-.88.88-10.77 15.13-22.82 35.43-25.42 53.16h-75.4q-3.23-21.38-24.58-51.88l-.88-.88a104.59 104.59 0 0 1-11.65-15.57v-.44a88.24 88.24 0 0 1-12.05-44.11 86.62 86.62 0 1 1 173.25 0A85.05 85.05 0 0 1 240 208.76zM165.87 34.1a7.71 7.71 0 0 0 7.74-7.77V7.77a7.74 7.74 0 1 0-15.48 0v18.57c-.44 4.28 2.99 7.76 7.74 7.76zM26.25 158.16H7.74a7.77 7.77 0 0 0 0 15.53h18.51a7.77 7.77 0 0 0 0-15.53zm205.57-106.4a12.3 12.3 0 0 0 3.87.88c2.59 0 5.63-1.28 6.9-3.89l9.5-16A7.92 7.92 0 1 0 238.28 25l-9.5 16a7.78 7.78 0 0 0 3.04 10.76zM89.18 48.8c1.28 2.6 4.31 3.88 6.9 3.88a12.28 12.28 0 0 0 3.87-.88A7.88 7.88 0 0 0 103 41l-9.5-16a7.92 7.92 0 1 0-13.8 7.77zm220.61 34.14a7.83 7.83 0 0 0-10.77-3l-16 9.53a7.88 7.88 0 0 0-3 10.81c1.28 2.6 4.31 3.88 6.9 3.88a12.3 12.3 0 0 0 3.87-.88l16-9.53a7.79 7.79 0 0 0 3-10.81zM48.68 89.43l-16-9.53A7.93 7.93 0 0 0 25 93.75l16 9.53a6.26 6.26 0 0 0 3.87.88 7.77 7.77 0 0 0 6.9-3.88 8 8 0 0 0-3.09-10.85zM324 158.16h-18.48a7.77 7.77 0 0 0 0 15.53H324a7.77 7.77 0 0 0 0-15.53z"/>
      </g>
    </g>
  </symbol>
  <symbol id="link" viewBox="0 0 18 17">
    <path d="M16.11 2.776v3.27a.72.72 0 1 0 1.44 0v-4.96a.718.718 0 0 0-.722-.72h-4.966a.72.72 0 0 0 0 1.44h3.18l-9.67 9.293a.72.72 0 0 0 .997 1.038l9.74-9.36zm-1.375 6.438v5.36a.719.719 0 0 1-.733.706H3.089a.719.719 0 0 1-.733-.707V3.855c0-.388.324-.706.733-.706h5.456a.72.72 0 1 0 0-1.44H3.09c-1.199 0-2.173.957-2.173 2.146v10.718c0 1.19.975 2.147 2.173 2.147h10.913c1.199 0 2.173-.958 2.173-2.147V9.214a.72.72 0 0 0-1.44 0z" fill-rule="evenodd"/>
  </symbol>
  <symbol id="linkedin" viewBox="0 0 15 15">
    <path d="M.184 14.524H3.27V5.002H.184v9.522zM1.747.411C.69.411 0 1.122 0 2.056c0 .915.671 1.646 1.706 1.646h.02c1.077 0 1.747-.731 1.747-1.646-.02-.934-.67-1.645-1.726-1.645zM14.4 9.064v5.46h-3.087V9.43c0-1.28-.446-2.153-1.563-2.153-.853 0-1.36.588-1.584 1.157-.08.204-.102.487-.102.772v5.318H4.977s.041-8.629 0-9.522h3.087v1.35c-.006.01-.015.02-.02.03h.02v-.03c.41-.648 1.142-1.574 2.782-1.574 2.031 0 3.554 1.36 3.554 4.286z" fill-rule="evenodd"/>
  </symbol>
  <symbol id="lock" viewBox="0 0 22 31">
    <path d="M17.929 10.104C20.252 10.63 22 12.694 22 15.15v10.394c0 2.852-2.357 5.175-5.235 5.175H5.235C2.357 30.718 0 28.395 0 25.543V15.149c0-2.851 2.357-5.174 5.235-5.174h10.743V6.957c0-2.535-2.116-4.596-4.717-4.596-2.601 0-4.717 2.061-4.717 4.596 0 .525-.436.95-.976.95a.962.962 0 0 1-.974-.95c0-3.582 2.99-6.496 6.667-6.496 3.676 0 6.668 2.914 6.668 6.496v3.147zM5.235 28.718C3.455 28.718 2 27.284 2 25.543V15.149c0-1.74 1.455-3.174 3.235-3.174h11.53c1.78 0 3.235 1.434 3.235 3.174v10.394c0 1.74-1.455 3.175-3.235 3.175H5.235zM16 21.288c0-.315-.148-.854-.47-1.296a1.825 1.825 0 0 0-1.546-.786H8.581c.07.57.27 1.02.6 1.344.581.567 1.396.576 1.418.576l.487-.007v.482c0 1.244.991 1.412 1.96 1.412h.078v.95h-.077c-2.095 0-2.753-.969-2.89-1.93-.434-.073-1.1-.27-1.648-.807-.606-.592-.914-1.432-.914-2.496v-.474h6.39c.803 0 1.426.289 1.89.704a5.037 5.037 0 0 0-4.833-3.573c-2.785 0-5.042 2.238-5.042 5 0 2.76 2.257 5 5.042 5 2.471 0 4.527-1.765 4.958-4.091v-.008z" fill-rule="evenodd"/>
  </symbol>
  <symbol id="map-marker" viewBox="0 0 16 21">
    <path d="M7.821 18.631c.22-.19.503-.482.822-.85.68-.781 1.473-1.841 2.212-2.968 1.748-2.664 2.88-5.185 2.88-6.638 0-3.222-2.663-5.804-5.986-5.804-3.361 0-5.984 2.573-5.984 5.962 0 1.541 1.124 4.036 2.874 6.636.734 1.09 1.524 2.112 2.206 2.864.318.35.598.627.817.807l.076.06a3.06 3.06 0 0 0 .083-.069zm-.063 1.686C5.863 20.339.235 11.977.235 8.333.235 4.093 3.548.84 7.749.84c4.158 0 7.516 3.256 7.516 7.335 0 3.49-5.66 12.12-7.507 12.142z"/>
    <path d="M9.948 8.638c0-1.183-.995-2.15-2.234-2.15-1.24 0-2.235.967-2.235 2.15 0 1.182.996 2.15 2.235 2.15 1.239 0 2.234-.967 2.234-2.15zm1.531 0c0 2.038-1.69 3.681-3.765 3.681s-3.766-1.643-3.766-3.681c0-2.039 1.691-3.682 3.766-3.682s3.765 1.643 3.765 3.682z"/>
  </symbol>
  <symbol id="minus" viewBox="0 0 16 1">
    <path d="M7 0H1C.338 0 0 .155 0 1c0-.141.338 0 1 0h14c.663 0 1-.141 1 0 0-.838-.337-1-1-1H7z"/>
  </symbol>
  <symbol id="mobile" viewBox="0 0 15 26">
    <path d="M11.647 0H2.685C1.205 0 0 1.187 0 2.644v20.181c0 1.458 1.204 2.644 2.685 2.644h8.962c1.48 0 2.685-1.186 2.685-2.644V2.645C14.332 1.186 13.127 0 11.647 0zM2.685 1.04h8.962c.898 0 1.629.72 1.629 1.604v.852H1.056v-.852c0-.884.731-1.603 1.629-1.603zm10.59 21.785c0 .885-.73 1.604-1.628 1.604H2.685c-.898 0-1.628-.72-1.628-1.604v-2.666h12.219v2.666zM1.058 4.456h12.219v14.662H1.056V4.456zm6.109 18.889c.588 0 1.068-.471 1.068-1.051s-.48-1.052-1.068-1.052A1.06 1.06 0 0 0 6.1 22.294c0 .58.479 1.051 1.067 1.051z" fill-rule="evenodd"/>
  </symbol>
  <symbol id="online" viewBox="0 0 43 43">
    <path d="M43 21.5A21.51 21.51 0 0 0 22 0h-.68a21.49 21.49 0 0 0 0 43H22a21.51 21.51 0 0 0 21-21.5zM3.08 23.15H8.5a32.78 32.78 0 0 0 1 6.63H5a18.33 18.33 0 0 1-1.92-6.63zm36.85-3h-5.07a33 33 0 0 0-.86-6.63h4.2a18.33 18.33 0 0 1 1.73 6.63zm-8.07 0h-8.68v-6.63h7.64a29.12 29.12 0 0 1 1.05 6.63zm-8.69-9.63v-7.2c2.65.86 5 3.52 6.58 7.2zm-3-7.2v7.2h-6.58c1.59-3.68 3.93-6.34 6.59-7.2zm0 10.2v6.63h-8.68a29.12 29.12 0 0 1 1-6.63zM8.49 20.15H3.07a18.33 18.33 0 0 1 1.77-6.63h4.55a33 33 0 0 0-.9 6.63zm3 3h8.68v6.63h-7.55a28.91 28.91 0 0 1-1.12-6.63zm8.68 9.63v6.9c-2.58-.84-4.87-3.37-6.45-6.9zm3 6.9v-6.9h6.45c-1.62 3.53-3.86 6.06-6.44 6.9zm0-9.9v-6.63h8.68a28.9 28.9 0 0 1-1.12 6.63zm11.68-6.63h5.06A18.33 18.33 0 0 1 38 29.79h-4.11a32.78 32.78 0 0 0 .96-6.64zm1.5-12.63H33a21.79 21.79 0 0 0-2.78-5.3 18.61 18.61 0 0 1 6.13 5.3zM13.27 5a21.6 21.6 0 0 0-3 5.56H6.65A18.59 18.59 0 0 1 13.27 5zm-6.4 27.79h3.55A21.41 21.41 0 0 0 13.27 38a18.59 18.59 0 0 1-6.4-5.21zm23.39 5a21.59 21.59 0 0 0 2.67-5h3.2a18.61 18.61 0 0 1-5.87 5z"/>
  </symbol>
  <symbol id="paperclip" viewBox="0 0 17 15">
    <path d="M15.74 1.745a3.418 3.418 0 0 0-4.81 0L4.119 8.506a2.12 2.12 0 0 0 0 3.013c.836.83 2.19.83 3.025 0l5.309-5.268a.5.5 0 1 0-.705-.71L6.44 10.81a1.15 1.15 0 0 1-1.617 0 1.12 1.12 0 0 1 0-1.594l6.811-6.76a2.418 2.418 0 0 1 3.375-.026c.963.955.963 2.461.026 3.391l-7.143 7.09a3.766 3.766 0 0 1-5.297 0 3.69 3.69 0 0 1 0-5.247l5.64-5.6a.5.5 0 0 0-.704-.709l-5.64 5.6a4.69 4.69 0 0 0 0 6.666 4.766 4.766 0 0 0 6.706 0l7.143-7.09a3.366 3.366 0 0 0 .148-4.63l-.148-.156z"/>
  </symbol>
  <symbol id="payment" viewBox="0 0 50 51">
    <g fill-rule="evenodd">
      <path d="M33.183 13.276c.696 0 1.261.565 1.261 1.26a1.19 1.19 0 1 0 2.381 0 3.647 3.647 0 0 0-2.33-3.396v-.334a1.172 1.172 0 0 0-2.345 0v.239a3.648 3.648 0 0 0-2.609 3.492c0 2 1.634 3.626 3.642 3.626.696 0 1.261.56 1.261 1.246a1.261 1.261 0 0 1-2.522 0 1.19 1.19 0 1 0-2.38 0 3.648 3.648 0 0 0 2.608 3.492v.39a1.172 1.172 0 0 0 2.344 0v-.485a3.647 3.647 0 0 0 2.331-3.397c0-2-1.634-3.627-3.642-3.627-.695 0-1.26-.558-1.26-1.245 0-.696.565-1.261 1.26-1.261M16.817 29.642c.695 0 1.26.566 1.26 1.261a1.19 1.19 0 1 0 2.382 0 3.648 3.648 0 0 0-2.371-3.412v-.318a1.172 1.172 0 0 0-2.344 0v.25a3.649 3.649 0 0 0-2.57 3.48c0 2 1.635 3.627 3.643 3.627.695 0 1.26.559 1.26 1.246a1.261 1.261 0 0 1-2.521 0 1.19 1.19 0 1 0-2.381 0 3.649 3.649 0 0 0 2.57 3.48v.402a1.172 1.172 0 0 0 2.343 0v-.47a3.648 3.648 0 0 0 2.37-3.412c0-2-1.633-3.627-3.641-3.627a1.255 1.255 0 0 1-1.261-1.246c0-.695.565-1.26 1.26-1.26"/>
      <g transform="translate(0 .008)">
        <mask id="b">
          <use xlink:href="#a"/>
        </mask>
        <path d="M33.183 31.4c-7.96 0-14.435-6.475-14.435-14.435 0-7.96 6.476-14.436 14.435-14.436 7.96 0 14.436 6.476 14.436 14.436s-6.476 14.436-14.436 14.436M16.817 47.775c-7.96 0-14.436-6.483-14.436-14.443 0-7.847 6.293-14.251 14.098-14.431.89 7.729 7.04 13.88 14.77 14.769-.173 7.82-6.58 14.105-14.432 14.105M50 16.965C50 7.692 42.456.148 33.183.148c-9.124 0-16.575 7.306-16.81 16.375C7.303 16.759 0 24.21 0 33.336c0 9.272 7.544 16.82 16.817 16.82 9.128 0 16.582-7.356 16.81-16.38C42.697 33.539 50 26.089 50 16.965" mask="url(#b)"/>
      </g>
    </g>
  </symbol>
  <symbol id="pen" viewBox="0 0 18 18">
    <g fill-rule="evenodd">
      <path d="M14.283 1.994a2.192 2.192 0 0 1 1.55 3.741l-3.1-3.1c.427-.428.99-.641 1.55-.641m0-1.196c-.906 0-1.756.353-2.396.993l-.845.845 4.79 4.79.846-.845c.64-.64.992-1.49.992-2.395s-.352-1.756-.992-2.395a3.364 3.364 0 0 0-2.395-.993"/>
      <path d="M12.216 3.152l3.1 3.1-9.479 9.48-3.7.924a.269.269 0 0 1-.325-.325l.925-3.7 9.48-9.479m0-1.69L1.656 12.02.652 16.041c-.11.44-.013.898.266 1.256a1.455 1.455 0 0 0 1.51.519l3.699-.924.321-.081 10.56-10.56-4.792-4.79"/>
    </g>
  </symbol>
  <symbol id="phone" viewBox="0 0 15 26">
    <g fill-rule="evenodd">
      <path d="M12.131.04H3.17C1.689.04.485 1.228.485 2.686v20.18c0 1.46 1.204 2.645 2.685 2.645h8.961c1.481 0 2.686-1.186 2.686-2.644V2.686c0-1.459-1.205-2.645-2.686-2.645zM3.17 1.082h8.961c.899 0 1.63.72 1.63 1.604v.852H1.54v-.852c0-.885.731-1.604 1.629-1.604zm10.59 21.785c0 .884-.73 1.604-1.629 1.604H3.17c-.898 0-1.629-.72-1.629-1.604V20.2h12.22v2.666zM1.541 4.496h12.22V19.16H1.54V4.497z"/>
      <path d="M7.65 23.386c.59 0 1.069-.472 1.069-1.051 0-.58-.48-1.052-1.068-1.052a1.06 1.06 0 0 0-1.067 1.052c0 .58.479 1.05 1.067 1.05"/>
    </g>
  </symbol>
  <symbol id="play-button" viewBox="0 0 27 27">
    <path d="M13.5 27C20.956 27 27 20.956 27 13.5S20.956 0 13.5 0 0 6.044 0 13.5 6.044 27 13.5 27zm-2.63-7.714c-.21 0-.421-.06-.613-.179a1.325 1.325 0 0 1-.614-1.141V9.035c0-.477.229-.904.614-1.142a1.143 1.143 0 0 1 1.228 0l7.187 4.466c.385.238.614.664.614 1.14 0 .477-.23.904-.613 1.142l-7.189 4.466a1.16 1.16 0 0 1-.614.179zm.117-10.607a.368.368 0 0 0-.19.056.414.414 0 0 0-.19.36v8.81c0 .216.132.324.19.36a.343.343 0 0 0 .378-.001l6.957-4.405a.42.42 0 0 0 .19-.36.42.42 0 0 0-.19-.358l-6.957-4.405a.346.346 0 0 0-.188-.057z" fill-rule="evenodd"/>
  </symbol>
  <symbol id="play" viewBox="0 0 70 72">
    <g fill-rule="evenodd">
      <rect y=".208" width="70" height="70.84" rx="35"/>
      <path d="M31.27 45.509c-.354 0-.71-.09-1.038-.272-.76-.42-1.232-1.254-1.232-2.175V28.194c0-.92.472-1.755 1.232-2.175.704-.39 1.53-.36 2.21.081l11.46 7.433c.689.448 1.098 1.23 1.098 2.095 0 .867-.41 1.649-1.097 2.095l-11.461 7.433a2.137 2.137 0 0 1-1.172.353z"/>
    </g>
  </symbol>
  <symbol id="plus-circle-fill" viewBox="0 0 17 17">
    <path d="M7.963 9.037v3.65a.537.537 0 0 0 1.074 0v-3.65h3.713a.537.537 0 0 0 0-1.074H9.037V4.187a.537.537 0 0 0-1.074 0v3.776H4.25a.537.537 0 0 0 0 1.074h3.713zm6.547 5.473a8.5 8.5 0 0 1-12.02 0 8.5 8.5 0 0 1 0-12.02 8.5 8.5 0 0 1 12.02 0 8.5 8.5 0 0 1 0 12.02z" fill-rule="evenodd"/>
  </symbol>
  <symbol id="plus-circle" viewBox="0 0 24 24">
    <path d="M22 12c0-5.523-4.477-10-10-10S2 6.477 2 12s4.477 10 10 10 10-4.477 10-10zm-10.65.65H7.286a.65.65 0 1 1 0-1.3h4.064V7.286a.65.65 0 1 1 1.3 0v4.064h4.064a.65.65 0 0 1 0 1.3H12.65v4.064a.65.65 0 1 1-1.3 0V12.65zM0 12C0 5.373 5.373 0 12 0s12 5.373 12 12-5.373 12-12 12S0 18.627 0 12z" fill-rule="evenodd"/>
  </symbol>
  <symbol id="plus" viewBox="0 0 18 18">
    <path d="M9.9 8.1V.9C9.858.38 9.46 0 9 0c-.476 0-.875.38-.9.9v7.2H.9c-.52.052-.9.432-.9.9 0 .487.38.886.9.9h7.2v7.2c.025.52.424.9.9.9.46 0 .858-.38.9-.9V9.9h7.2c.521-.014.9-.413.9-.9 0-.458-.379-.848-.9-.9H9.9z"/>
  </symbol>
  <symbol id="poster" viewBox="0 0 211.93 216.85">
    <path d="M106 0C47.53 0 0 48.64 0 108.43s47.53 108.42 106 108.42 106-48.64 106-108.43S164.39 0 106 0zM45.16 188.12v-11.44a17.55 17.55 0 0 1 11.44-16.45L94.16 146v-15.57c3 2 8.14 3.05 12.65 3.05a28.44 28.44 0 0 0 12.35-2.91V146l37.6 14.2a17.54 17.54 0 0 1 11.4 16.43v10.84a96.88 96.88 0 0 1-123 .6zm74.55-126.86a11.71 11.71 0 0 0 4.52 8.84c4.84 3.66 8 12.94 8 23.64 0 18-11.7 32.73-26.09 32.73S80 111.79 80 93.74c0-10.43 3.85-20 10.56-26.26l.25-.23c5.32-4.88 12.88-7.68 15.75-8.75l.77-.29c1.25-.48 4.3-1.94 7.26-3.39l-2.47 9.46zm55.45 119.92v-4.5a24.56 24.56 0 0 0-16-23l-33-12.47v-15.32c8-7.23 13.36-18.76 13.36-32 0-10.2-3.06-23-11-29-3-2-1.31-7.69-1.3-7.73l2.46-7.31-7.22 2.83 2.88-11.05-6.94 3.49c-4.5 2.27-11.82 5.89-13.53 6.54l-.71.26c-3.28 1.22-12 4.45-18.3 10.38l-.51.46v.05C77.49 70.4 73.4 81.63 73.4 93.74c0 13 4.76 24.64 13.76 31.89v15.57l-33 12.46a24.57 24.57 0 0 0-16 23v5.23a102.37 102.37 0 0 1-31-73.48C7.18 52.51 51.48 7 106 7s99.08 45.5 99.08 101.42a104.56 104.56 0 0 1-29.92 72.76z" data-name="Layer 1"/>
  </symbol>
  <symbol id="removalist" viewBox="0 0 30 30">
    <path d="M24.65 17.157v.086a.65.65 0 1 1-1.3 0v-.037h-7.7v.037a.65.65 0 1 1-1.3 0v-.373a1.424 1.424 0 0 1-.508-1.09v-2.256c0-.562.327-1.05.8-1.282a2.209 2.209 0 0 1 2.18-1.881h3.161a.663.663 0 0 1 .034 0h2.707a2.21 2.21 0 0 1 2.18 1.881c.473.233.8.72.8 1.282v2.256a1.43 1.43 0 0 1-1.054 1.377zm-4-3.06h2.2v-.573c0-.534.295-1 .73-1.245a.91.91 0 0 0-.856-.618H20.65v2.437zm-1.3 0v-2.436h-2.529a.909.909 0 0 0-.856.618c.435.245.73.711.73 1.245v.574h2.655zm.643 1.3h-3.948a.65.65 0 0 1-.65-.65v-1.223a.129.129 0 0 0-.127-.127.129.129 0 0 0-.126.127v2.256c0 .068.058.126.126.126h9.01a.129.129 0 0 0 .126-.126v-2.256a.129.129 0 0 0-.127-.127.129.129 0 0 0-.126.127v1.224a.65.65 0 0 1-.65.65h-3.494a.664.664 0 0 1-.014 0zm4.172 6.717a2.511 2.511 0 0 1-4.71-.464H9.594a2.512 2.512 0 0 1-4.71.464H3a.65.65 0 0 1-.65-.65v-5.281c0-1.034.538-1.994 1.42-2.533l1.618-.99 1.199-2.268A3.066 3.066 0 0 1 9.298 8.76h2.79a2.973 2.973 0 0 1 2.918-2.409h9.304a3.05 3.05 0 0 1 3.05 3.05v9.849a2.862 2.862 0 0 1-2.861 2.863h-.334zm.229-1.3h.105c.69 0 1.276-.45 1.482-1.07h-1.939c.193.317.317.68.352 1.07zm-4.65-1.07H9.305c.114.187.204.39.265.606h9.908c.062-.216.152-.42.266-.607zm-15.089 1.07c.035-.39.16-.753.352-1.07H3.65v1.07h1.005zm7.38-2.37v-8.385H9.297c-.655 0-1.256.362-1.562.94l-1.282 2.427a.65.65 0 0 1-.235.25L4.447 14.76a1.668 1.668 0 0 0-.797 1.423v2.261h8.384zm-2.298-7.83a.65.65 0 1 1 0 1.3h-.094a.559.559 0 0 0-.5.31l-1.366 2.738a.65.65 0 1 1-1.163-.58l1.365-2.738a1.859 1.859 0 0 1 1.664-1.03h.094zM26.06 9.4a1.75 1.75 0 0 0-1.75-1.75h-9.304c-.923 0-1.672.749-1.672 1.672v9.121H26.06V9.4zM8.367 21.043a1.211 1.211 0 1 0-2.423 0 1.211 1.211 0 0 0 2.423 0zm14.737 0a1.211 1.211 0 1 0-2.423 0 1.211 1.211 0 0 0 2.423 0z" stroke="transparent" fill-rule="evenodd"/>
  </symbol>
  <symbol id="reply" viewBox="0 0 10 10">
    <path d="M.5 4.343h6.12A2.333 2.333 0 0 1 8.953 6.67V9.5a.5.5 0 0 0 1 0V6.671A3.333 3.333 0 0 0 6.62 3.343H.5a.5.5 0 0 0 0 1z"/>
    <path d="M.857 4.193L4.134.85a.5.5 0 1 0-.714-.7L.143 3.493a.5.5 0 0 0 .714.7z"/>
    <path d="M.143 4.193l3.245 3.31a.5.5 0 1 0 .714-.7L.857 3.493a.5.5 0 0 0-.714.7z"/>
  </symbol>
  <symbol id="search" viewBox="0 0 44 43.48">
    <g data-name="Layer 2">
      <path d="M43.41 40.07L31.35 28a17.33 17.33 0 1 0-2.76 2.9l12 12a2 2 0 0 0 2.83-2.83zM4 17.46a13.47 13.47 0 1 1 13.46 13.47A13.48 13.48 0 0 1 4 17.46z" data-name="Layer 1"/>
    </g>
  </symbol>
  <symbol id="success-circle" viewBox="0 0 24 24">
    <path d="M24 12c0-6.627-5.373-12-12-12S0 5.373 0 12s5.373 12 12 12 12-5.373 12-12zM2 12C2 6.477 6.477 2 12 2s10 4.477 10 10-4.477 10-10 10S2 17.523 2 12zm8.837 3.876h-.017a.643.643 0 0 1-.455-.208l-3.197-3.44a.642.642 0 0 1 .946-.865l2.75 2.951 5.418-6.348a.64.64 0 1 1 .895.917l-5.892 6.81a.643.643 0 0 1-.448.183z" fill-rule="evenodd"/>
  </symbol>
  <symbol id="thumb" viewBox="0 0 152 183">
    <g fill-rule="evenodd">
      <mask id="b">
        <use xlink:href="#a"/>
      </mask>
      <path d="M96.751 9.161c-4.22 0-6.496 4.986-9.545 15.087l-.79 2.592C79.54 48.807 60.35 85.99 9.073 88.184c-.187.004-.387.117-.387.303v61.288c0 .169.156.299.36.303 33.983.698 52.414 8.922 67.22 15.533 8.594 3.841 16.016 7.153 24.693 8.129 7.995.914 38.673-2.775 41.396-23.844 1.203-9.325.504-44.848.108-56.735-.482-14.645-16.363-18.048-31.837-19.444-3.778-.342-5.502-.498-6.918-1.404-3.418-2.185-4.934-6.438-3.692-10.349 5.95-18.702 6.892-40.278 2.154-49.118-1.016-1.894-2.175-3.004-3.543-3.399a6.837 6.837 0 0 0-1.877-.286m7.097 173.388a34.46 34.46 0 0 1-3.861-.195c-10.02-1.127-18.396-4.864-27.265-8.827-14.826-6.615-31.633-14.12-63.857-14.779-4.89-.1-8.864-4.127-8.864-8.973V88.487c0-4.816 3.822-8.757 8.699-8.97 45.974-1.963 63.232-35.466 69.425-55.265l.764-2.506C81.69 12.46 86.36-3.099 101.03 1.12c3.683 1.054 6.645 3.625 8.799 7.635 6.688 12.463 4.295 37.525-1.529 55.838a.539.539 0 0 0-.03.173c.79.104 2.058.217 3.14.316 10.648.963 38.938 3.512 39.737 27.798.295 8.97 1.194 47.51-.178 58.127-3.231 25.001-32.806 31.539-47.12 31.543" mask="url(#b)"/>
    </g>
  </symbol>
  <symbol id="thumbs-down" viewBox="0 0 77 93">
    <path d="M28.103 87.852c2.134 0 3.284-2.527 4.825-7.645l.4-1.313C36.8 67.764 46.5 48.924 72.413 47.812c.095-.002.196-.06.196-.154V16.605c0-.085-.08-.151-.182-.153-17.175-.354-26.49-4.521-33.972-7.87-4.343-1.947-8.094-3.625-12.48-4.12C21.937 4 6.433 5.869 5.057 16.545 4.448 21.269 4.8 39.267 5 45.29c.244 7.42 8.27 9.145 16.09 9.852 1.91.174 2.78.253 3.496.712 1.728 1.107 2.494 3.262 1.866 5.243-3.007 9.476-3.483 20.409-1.089 24.887.514.96 1.1 1.523 1.791 1.723.338.096.652.145.948.145M24.517-.001c.74 0 1.396.035 1.951.099 5.064.571 9.298 2.465 13.78 4.472 7.492 3.352 15.986 7.154 32.272 7.488 2.471.05 4.48 2.092 4.48 4.547v31.053c0 2.44-1.932 4.438-4.397 4.545-23.234.995-31.956 17.97-35.086 28.002l-.386 1.27c-1.416 4.705-3.775 12.588-11.19 10.451-1.86-.534-3.357-1.836-4.446-3.868-3.38-6.315-2.17-19.014.772-28.292a.274.274 0 0 0 .016-.088c-.4-.053-1.04-.11-1.587-.16-5.382-.488-19.679-1.78-20.082-14.085-.15-4.544-.604-24.072.09-29.452C2.336 3.314 17.284.001 24.517 0" fill-rule="evenodd"/>
  </symbol>
  <symbol id="thumbs-up" viewBox="0 0 34 43">
    <path d="M18.853 6.086c.04-.132.34-1.127.434-1.42.704-2.194 1.312-2.897 2.377-2.59 1.838.527 2.056 6.644.32 12.113a2.076 2.076 0 0 0 .849 2.387c.274.175.498.215 1.099.277.158.016.906.084.784.073.357.033.647.063.943.099.782.095 1.482.219 2.137.39 2.52.66 3.893 1.874 3.963 3.97.154 4.734.204 11.303-.026 13.087-.495 3.835-5.743 5.927-9.532 5.5-1.07-.12-2.094-.394-3.285-.85-.831-.32-3.94-1.704-4.1-1.77-4.241-1.803-8.155-2.723-13.78-2.839l-.04 2c5.354.11 9.02.972 13.039 2.679.115.049 3.276 1.456 4.165 1.797 1.339.513 2.523.829 3.777.97 4.732.533 11.063-1.99 11.74-7.232.25-1.941.2-8.521.04-13.407-.103-3.151-2.173-4.98-5.455-5.84a17.988 17.988 0 0 0-2.402-.44c-.317-.04-.625-.071-1-.106.11.01-.62-.056-.764-.071a5.294 5.294 0 0 1-.354-.045.523.523 0 0 1 .13.073C25.954 8.288 25.7 1.154 22.215.153c-2.526-.726-3.834.785-4.833 3.903-.1.313-.403 1.318-.44 1.434C14.635 12.88 9.5 17.872.957 18.238l.086 1.998c9.491-.406 15.271-6.025 17.81-14.15z" fill-rule="evenodd"/>
  </symbol>
  <symbol id="tick" viewBox="0 0 14 9">
    <path d="M12.521.333a.564.564 0 0 0-.425.169L4.915 7.445 1.928 4.21a.603.603 0 0 0-.846-.035.59.59 0 0 0-.037.837L4.45 8.698a.59.59 0 0 0 .41.19h.03a.597.597 0 0 0 .418-.167l7.624-7.37a.582.582 0 0 0 .18-.417.595.595 0 0 0-.59-.6z" fill-rule="evenodd"/>
  </symbol>
  <symbol id="tie" viewBox="0 0 14 41">
    <path d="M10.494 14.121a3.18 3.18 0 0 0-3.15-2.746h-.651a3.18 3.18 0 0 0-3.15 2.747l-2.51 18.284a3.479 3.479 0 0 0 .786 2.714l2.534 3.003a3.476 3.476 0 0 0 5.32-.008l2.55-3.043a3.473 3.473 0 0 0 .78-2.707l-2.51-18.244zM9.542 1h-4.93c-1.12 0-1.892 1.482-1.49 2.86l.854 2.934c.237.814.83 1.35 1.49 1.35h3.222c.66 0 1.252-.536 1.49-1.35l.854-2.933C11.433 2.48 10.662 1 9.542 1z" stroke-width="2" fill-rule="evenodd"/>
  </symbol>
  <symbol id="tooltip-icon" viewBox="0 0 22 23">
    <path d="M11 22.77c6.075 0 11-4.925 11-11s-4.925-11-11-11-11 4.925-11 11 4.925 11 11 11zm-.176-15.192h2.048l.352-1.808h-2.048l-.352 1.808zm-1.472 7.904c0 1.568 1.152 1.696 2.128 1.696.352 0 .72-.048.72-.048l.288-1.52s-.16.032-.352.032c-.416 0-.688-.16-.688-.656 0-.144.032-.336.064-.496l1.072-5.52h-3.28L9 10.49h1.264l-.816 4.16a4.42 4.42 0 0 0-.096.832z" fill-rule="evenodd"/>
  </symbol>
  <symbol id="twitter-circle" viewBox="0 0 25 24">
    <path d="M12.5 0C19.404 0 25 5.372 25 12c0 6.627-5.596 12-12.5 12C5.597 24 0 18.627 0 12 0 5.372 5.597 0 12.5 0zm-2.302 17.875c5.283 0 8.173-4.378 8.173-8.167 0-.124 0-.247-.005-.37A5.85 5.85 0 0 0 19.8 7.85c-.515.23-1.07.38-1.653.454a2.888 2.888 0 0 0 1.266-1.59c-.554.33-1.17.565-1.826.694a2.875 2.875 0 0 0-4.896 2.62 8.16 8.16 0 0 1-5.922-3 2.878 2.878 0 0 0 .89 3.835 2.907 2.907 0 0 1-1.299-.36v.04c0 1.388.992 2.552 2.303 2.815a2.868 2.868 0 0 1-1.294.051 2.872 2.872 0 0 0 2.683 1.993A5.765 5.765 0 0 1 5.8 16.593a8.176 8.176 0 0 0 4.398 1.282z" fill-rule="evenodd"/>
  </symbol>
  <symbol id="twitter" viewBox="0 0 16 13">
    <path d="M14.263 3.844c0 4.003-3.095 8.62-8.756 8.62a8.812 8.812 0 0 1-4.717-1.36c.24.027.485.041.734.041a6.234 6.234 0 0 0 3.822-1.297A3.074 3.074 0 0 1 2.47 7.745a3.152 3.152 0 0 0 1.39-.053c-1.408-.278-2.469-1.503-2.469-2.97v-.04c.415.228.89.364 1.395.38a3.018 3.018 0 0 1-1.37-2.522c0-.555.152-1.076.417-1.524a8.784 8.784 0 0 0 6.343 3.166 2.994 2.994 0 0 1-.08-.69c0-1.674 1.379-3.03 3.077-3.03.886 0 1.686.368 2.247.957a6.217 6.217 0 0 0 1.954-.735c-.23.707-.718 1.3-1.352 1.676a6.25 6.25 0 0 0 1.767-.477 6.212 6.212 0 0 1-1.536 1.568c.006.13.01.26.01.393z" fill-rule="evenodd"/>
  </symbol>
  <symbol id="upload" viewBox="0 0 42 42">
    <g fill-rule="evenodd">
      <g transform="translate(1 1)">
        <rect stroke="#CAD8DC" width="40" height="40" rx="20"/>
        <rect width="40" height="40" rx="20"/>
      </g>
      <path d="M21 14v8.61M20.974 14l-4.105 4.023M20.974 14l4.065 3.985m2.869 4.625v4.177H14v-4.178" stroke="#1B93C4" stroke-width="1.2" stroke-linecap="round" stroke-linejoin="round"/>
    </g>
  </symbol>
  <symbol id="valid" viewBox="0 0 20 20">
    <path d="M10 20C4.486 20 0 15.514 0 10S4.486 0 10 0s10 4.486 10 10-4.486 10-10 10zm5.42-13.333a.568.568 0 0 0-.417.157l-7.05 6.492-2.933-3.024a.613.613 0 0 0-.83-.034.53.53 0 0 0-.036.783l3.341 3.447c.11.111.258.175.402.177l.031.002c.155 0 .3-.056.41-.158l7.486-6.891a.532.532 0 0 0 .01-.783.598.598 0 0 0-.413-.168z" fill-rule="evenodd"/>
  </symbol>
  <symbol id="warning-circle" viewBox="0 0 24 24">
    <path d="M24 12c0-6.627-5.373-12-12-12S0 5.373 0 12s5.373 12 12 12 12-5.373 12-12zM2 12C2 6.477 6.477 2 12 2s10 4.477 10 10-4.477 10-10 10S2 17.523 2 12zm9 4.784h2v-2h-2v2zm.152-3h1.681l.167-7h-2l.152 7z" fill-rule="evenodd"/>
  </symbol>
  <symbol id="worker" viewBox="0 0 206.92 206.92">
    <path d="M103.46 0a103.46 103.46 0 1 0 103.46 103.46A103.58 103.58 0 0 0 103.46 0zm-53 184.27a4.06 4.06 0 0 0 .08-.78v-10.4a14.16 14.16 0 0 1 9.33-13.39l33.67-12.56v-13.81a28.26 28.26 0 0 0 20-.12v13.93l33.71 12.58a14.14 14.14 0 0 1 9.29 13.37v10.4a4 4 0 0 0 .07.72 96.48 96.48 0 0 1-106.15.06zM75.23 63.35c-.06-.61-.09-1.24-.09-1.88a20.79 20.79 0 0 1 .47-4.5 24.51 24.51 0 0 1 10-14.87l.24-.17c.23.61.45 1.29.66 2L88.78 52l4-7.41c2.68-5 6.56-8 10.9-8.06 3.9 0 7.65 2.7 10.31 7.33l3.75 6.55 2.39-7.16c.14-.41.34-.9.57-1.41l.71.48a24 24 0 0 1 10.07 17.92v1.18c0 .63 0 1.27-.09 1.88l-.24 2.54 2.38.93c5.1 2 7.42 4.25 7.42 5.51s-2.31 3.61-8.11 5.76l-1.39.46c-1.41.47-2.9.92-4.52 1.31l-.85.23h-.2c-1 .23-2.07.44-3.17.64a115.42 115.42 0 0 1-38.75 0l-.37-.06c-.93-.16-1.82-.35-2.68-.55l-.91-.14-1.33-.34c-1.1-.29-2.23-.63-3.46-1l-1.47-.49c-5.74-2.14-8-4.49-8-5.73s2.32-3.52 7.42-5.51l2.38-.93zM76.5 86l.8.21 5.53 1.24a113.64 113.64 0 0 0 20.41 1.74 116.86 116.86 0 0 0 20.62-1.78q2.39-.43 4.57-1l.92-.23.35-.1.31-.08a40.49 40.49 0 0 1 .86 8.3c0 18.74-12.41 34-27.67 34s-27.67-15.25-27.67-34a40.42 40.42 0 0 1 .97-8.3zm88 92.35v-5.3a22.18 22.18 0 0 0-14.56-20.92l-28.44-10.62v-12.74c10-7.23 16.14-20 16.14-34.43a47.25 47.25 0 0 0-1.13-10.44c7.24-3 11.31-7 11.31-11.57 0-3-2.32-7.26-9.32-10.86a3.76 3.76 0 0 0-.17-1l-.07-.36a30.8 30.8 0 0 0-12.84-23.21c-1.4-1-4.12-2.6-4.42-2.78l-3-1.72-1.67 3-.12.21a17.51 17.51 0 0 0-12.66-5.84h-.35A17.67 17.67 0 0 0 90.56 36l-.37-.64-1.65-2.74-2.83 1.49a32.38 32.38 0 0 0-4.09 2.51 31.1 31.1 0 0 0-12.56 18.95 27.55 27.55 0 0 0-.55 5.91c-8 3.59-9.51 7.82-9.51 10.85 0 4.61 3.87 8.59 11.11 11.56A47.18 47.18 0 0 0 69 94.34C69 109 75.51 121.82 85.51 129v12.54l-28.39 10.6a22.2 22.2 0 0 0-14.61 20.93v5.37a96.69 96.69 0 1 1 122-.08z" data-name="Layer 1"/>
  </symbol>
  <symbol id="youtube-circle" viewBox="0 0 25 24">
    <path d="M12.5 0C19.404 0 25 5.372 25 12c0 6.627-5.596 12-12.5 12C5.597 24 0 18.627 0 12 0 5.372 5.597 0 12.5 0zm6.65 8.59a1.746 1.746 0 0 0-1.233-1.233c-1.087-.291-5.447-.291-5.447-.291s-4.359 0-5.446.29a1.75 1.75 0 0 0-1.233 1.233C5.5 9.677 5.5 11.945 5.5 11.945s0 2.268.291 3.355c.16.6.633 1.072 1.233 1.233 1.087.291 5.446.291 5.446.291s4.36 0 5.447-.291c.6-.16 1.072-.633 1.233-1.233.29-1.087.29-3.355.29-3.355s0-2.268-.29-3.356zm-4.452 3.355l-3.622 2.091V9.854l3.622 2.09v.001z" fill-rule="evenodd"/>
  </symbol>
</svg>